<svg xmlns="http://www.w3.org/2000/svg" xmlns:xlink="http://www.w3.org/1999/xlink" contentStyleType="text/css" height="1059px" preserveAspectRatio="none" style="width:2103px;height:1059px;background:#FFFFFF;" version="1.1" viewBox="0 0 2103 1059" width="2103px" zoomAndPan="magnify"><title>Context Map &#8212; pr_efetiva_internet (Efetiva&#231;&#227;o PIM)</title><defs/><g><text fill="#000000" font-family="Verdana" font-size="22" font-weight="bold" lengthAdjust="spacing" textLength="649.4082" x="722.4841" y="37.1182">Context Map &#8212; pr_efetiva_internet (Efetiva&#231;&#227;o PIM)</text><!--entity BC01--><g id="elem_BC01"><rect fill="#FFD700" height="94.8433" rx="2.5" ry="2.5" style="stroke:#333333;stroke-width:1;" width="128.2007" x="1065" y="105.0573"/><text fill="#000000" font-family="Verdana" font-size="11" font-style="italic" lengthAdjust="spacing" textLength="37.834" x="1110.1833" y="126.1164">&#171;core&#187;</text><text fill="#000000" font-family="Verdana" font-size="11" font-weight="bold" lengthAdjust="spacing" textLength="56.0581" x="1075" y="139.485">BC-EI-01</text><text fill="#000000" font-family="Verdana" font-size="11" lengthAdjust="spacing" textLength="74.0996" x="1075" y="152.8537">Orquestra&#231;&#227;o</text><text fill="#000000" font-family="Verdana" font-size="11" lengthAdjust="spacing" textLength="81.2593" x="1075" y="166.2223">Efetiva&#231;&#227;o PIM</text><line style="stroke:#333333;stroke-width:1;" x1="1066" x2="1192.2007" y1="168.5319" y2="168.5319"/><text fill="#000000" font-family="Verdana" font-size="11" lengthAdjust="spacing" textLength="108.2007" x="1075" y="183.591">pk_efetiva_internet</text></g><!--entity BC04--><g id="elem_BC04"><rect fill="#FFD700" height="94.8433" rx="2.5" ry="2.5" style="stroke:#333333;stroke-width:1;" width="179.0596" x="577.5" y="355.0573"/><text fill="#000000" font-family="Verdana" font-size="11" font-style="italic" lengthAdjust="spacing" textLength="37.834" x="648.1128" y="376.1164">&#171;core&#187;</text><text fill="#000000" font-family="Verdana" font-size="11" font-weight="bold" lengthAdjust="spacing" textLength="56.0581" x="587.5" y="389.485">BC-EI-04</text><text fill="#000000" font-family="Verdana" font-size="11" lengthAdjust="spacing" textLength="66.4565" x="587.5" y="402.8537">Cadastro de</text><text fill="#000000" font-family="Verdana" font-size="11" lengthAdjust="spacing" textLength="63.5938" x="587.5" y="416.2223">Empresa PJ</text><line style="stroke:#333333;stroke-width:1;" x1="578.5" x2="755.5596" y1="418.5319" y2="418.5319"/><text fill="#000000" font-family="Verdana" font-size="11" lengthAdjust="spacing" textLength="159.0596" x="587.5" y="433.591">pk_efetivacao_empresa_pim</text></g><!--entity BC05--><g id="elem_BC05"><rect fill="#FFD700" height="94.8433" rx="2.5" ry="2.5" style="stroke:#333333;stroke-width:1;" width="169.5474" x="734" y="533.0573"/><text fill="#000000" font-family="Verdana" font-size="11" font-style="italic" lengthAdjust="spacing" textLength="37.834" x="799.8567" y="554.1164">&#171;core&#187;</text><text fill="#000000" font-family="Verdana" font-size="11" font-weight="bold" lengthAdjust="spacing" textLength="56.0581" x="744" y="567.485">BC-EI-05</text><text fill="#000000" font-family="Verdana" font-size="11" lengthAdjust="spacing" textLength="59.646" x="744" y="580.8537">Integra&#231;&#227;o</text><text fill="#000000" font-family="Verdana" font-size="11" lengthAdjust="spacing" textLength="79.6479" x="744" y="594.2223">Sa&#250;de-Odonto</text><line style="stroke:#333333;stroke-width:1;" x1="735" x2="902.5474" y1="596.5319" y2="596.5319"/><text fill="#000000" font-family="Verdana" font-size="11" lengthAdjust="spacing" textLength="149.5474" x="744" y="611.591">pk_efetivacao_odonto_pim</text></g><!--entity BC06--><g id="elem_BC06"><rect fill="#FFD700" height="94.8433" rx="2.5" ry="2.5" style="stroke:#333333;stroke-width:1;" width="140.4951" x="1059" y="355.0573"/><text fill="#000000" font-family="Verdana" font-size="11" font-style="italic" lengthAdjust="spacing" textLength="37.834" x="1110.3306" y="376.1164">&#171;core&#187;</text><text fill="#000000" font-family="Verdana" font-size="11" font-weight="bold" lengthAdjust="spacing" textLength="56.0581" x="1069" y="389.485">BC-EI-06</text><text fill="#000000" font-family="Verdana" font-size="11" lengthAdjust="spacing" textLength="83.5796" x="1069" y="402.8537">Processamento</text><text fill="#000000" font-family="Verdana" font-size="11" lengthAdjust="spacing" textLength="87.2427" x="1069" y="416.2223">de Benefici&#225;rios</text><line style="stroke:#333333;stroke-width:1;" x1="1060" x2="1198.4951" y1="418.5319" y2="418.5319"/><text fill="#000000" font-family="Verdana" font-size="11" lengthAdjust="spacing" textLength="120.4951" x="1069" y="433.591">pk_baixa_beneficiario</text></g><!--entity BC02--><g id="elem_BC02"><rect fill="#87CEEB" height="94.8433" rx="2.5" ry="2.5" style="stroke:#333333;stroke-width:1;" width="124.0112" x="252" y="355.0573"/><text fill="#000000" font-family="Verdana" font-size="11" font-style="italic" lengthAdjust="spacing" textLength="73.1006" x="277.4553" y="376.1164">&#171;supporting&#187;</text><text fill="#000000" font-family="Verdana" font-size="11" font-weight="bold" lengthAdjust="spacing" textLength="56.0581" x="262" y="389.485">BC-EI-02</text><text fill="#000000" font-family="Verdana" font-size="11" lengthAdjust="spacing" textLength="69.9102" x="262" y="402.8537">Valida&#231;&#227;o de</text><text fill="#000000" font-family="Verdana" font-size="11" lengthAdjust="spacing" textLength="61.6011" x="262" y="416.2223">Pend&#234;ncias</text><line style="stroke:#333333;stroke-width:1;" x1="253" x2="375.0112" y1="418.5319" y2="418.5319"/><text fill="#000000" font-family="Verdana" font-size="11" lengthAdjust="spacing" textLength="104.0112" x="262" y="433.591">pk_pendencia_pim</text></g><!--entity BC03--><g id="elem_BC03"><rect fill="#87CEEB" height="94.8433" rx="2.5" ry="2.5" style="stroke:#333333;stroke-width:1;" width="101.0552" x="1272.5" y="533.0573"/><text fill="#000000" font-family="Verdana" font-size="11" font-style="italic" lengthAdjust="spacing" textLength="73.1006" x="1286.4773" y="554.1164">&#171;supporting&#187;</text><text fill="#000000" font-family="Verdana" font-size="11" font-weight="bold" lengthAdjust="spacing" textLength="56.0581" x="1282.5" y="567.485">BC-EI-03</text><text fill="#000000" font-family="Verdana" font-size="11" lengthAdjust="spacing" textLength="52.3574" x="1282.5" y="580.8537">Cr&#237;tica de</text><text fill="#000000" font-family="Verdana" font-size="11" lengthAdjust="spacing" textLength="69.9692" x="1282.5" y="594.2223">Benefici&#225;rios</text><line style="stroke:#333333;stroke-width:1;" x1="1273.5" x2="1372.5552" y1="596.5319" y2="596.5319"/><text fill="#000000" font-family="Verdana" font-size="11" lengthAdjust="spacing" textLength="81.0552" x="1282.5" y="611.591">pk_critica_pim</text></g><!--entity BC07--><g id="elem_BC07"><rect fill="#87CEEB" height="94.8433" rx="2.5" ry="2.5" style="stroke:#333333;stroke-width:1;" width="101.6191" x="415" y="533.0573"/><text fill="#000000" font-family="Verdana" font-size="11" font-style="italic" lengthAdjust="spacing" textLength="73.1006" x="429.2593" y="554.1164">&#171;supporting&#187;</text><text fill="#000000" font-family="Verdana" font-size="11" font-weight="bold" lengthAdjust="spacing" textLength="56.0581" x="425" y="567.485">BC-EI-07</text><text fill="#000000" font-family="Verdana" font-size="11" lengthAdjust="spacing" textLength="55.7036" x="425" y="580.8537">Gest&#227;o de</text><text fill="#000000" font-family="Verdana" font-size="11" lengthAdjust="spacing" textLength="35.4868" x="425" y="594.2223">Status</text><line style="stroke:#333333;stroke-width:1;" x1="416" x2="515.6191" y1="596.5319" y2="596.5319"/><text fill="#000000" font-family="Verdana" font-size="11" lengthAdjust="spacing" textLength="81.6191" x="425" y="611.591">pk_status_pim</text></g><!--entity BC08--><g id="elem_BC08"><rect fill="#87CEEB" height="94.8433" rx="2.5" ry="2.5" style="stroke:#333333;stroke-width:1;" width="121.0571" x="1293.5" y="105.0573"/><text fill="#000000" font-family="Verdana" font-size="11" font-style="italic" lengthAdjust="spacing" textLength="73.1006" x="1317.4783" y="126.1164">&#171;supporting&#187;</text><text fill="#000000" font-family="Verdana" font-size="11" font-weight="bold" lengthAdjust="spacing" textLength="56.0581" x="1303.5" y="139.485">BC-EI-08</text><text fill="#000000" font-family="Verdana" font-size="11" lengthAdjust="spacing" textLength="49.6826" x="1303.5" y="152.8537">Auditoria</text><text fill="#000000" font-family="Verdana" font-size="11" lengthAdjust="spacing" textLength="30.0728" x="1303.5" y="166.2223">e Log</text><line style="stroke:#333333;stroke-width:1;" x1="1294.5" x2="1413.5571" y1="168.5319" y2="168.5319"/><text fill="#000000" font-family="Verdana" font-size="11" lengthAdjust="spacing" textLength="101.0571" x="1303.5" y="183.591">pk_log_baixa_pim</text></g><!--entity BC11--><g id="elem_BC11"><rect fill="#87CEEB" height="94.8433" rx="2.5" ry="2.5" style="stroke:#333333;stroke-width:1;" width="145.8823" x="931" y="230.0573"/><text fill="#000000" font-family="Verdana" font-size="11" font-style="italic" lengthAdjust="spacing" textLength="73.1006" x="967.3909" y="251.1164">&#171;supporting&#187;</text><text fill="#000000" font-family="Verdana" font-size="11" font-weight="bold" lengthAdjust="spacing" textLength="56.0581" x="941" y="264.485">BC-EI-11</text><text fill="#000000" font-family="Verdana" font-size="11" lengthAdjust="spacing" textLength="98.7959" x="941" y="277.8537">Carga Autom&#225;tica</text><text fill="#000000" font-family="Verdana" font-size="11" lengthAdjust="spacing" textLength="63.4487" x="941" y="291.2223">PIM Modelo</text><line style="stroke:#333333;stroke-width:1;" x1="932" x2="1075.8823" y1="293.5319" y2="293.5319"/><text fill="#000000" font-family="Verdana" font-size="11" lengthAdjust="spacing" textLength="125.8823" x="941" y="308.591">pk_carga_modelo_pim</text></g><!--entity BC12--><g id="elem_BC12"><rect fill="#87CEEB" height="94.8433" rx="2.5" ry="2.5" style="stroke:#333333;stroke-width:1;" width="120.7402" x="118.5" y="230.0573"/><text fill="#000000" font-family="Verdana" font-size="11" font-style="italic" lengthAdjust="spacing" textLength="73.1006" x="142.3198" y="251.1164">&#171;supporting&#187;</text><text fill="#000000" font-family="Verdana" font-size="11" font-weight="bold" lengthAdjust="spacing" textLength="56.0581" x="128.5" y="264.485">BC-EI-12</text><text fill="#000000" font-family="Verdana" font-size="11" lengthAdjust="spacing" textLength="59.4258" x="128.5" y="277.8537">Individual/</text><text fill="#000000" font-family="Verdana" font-size="11" lengthAdjust="spacing" textLength="43.9839" x="128.5" y="291.2223">Familiar</text><line style="stroke:#333333;stroke-width:1;" x1="119.5" x2="238.2402" y1="293.5319" y2="293.5319"/><text fill="#000000" font-family="Verdana" font-size="11" lengthAdjust="spacing" textLength="100.7402" x="128.5" y="308.591">pk_individual_pim</text></g><!--entity BC13--><g id="elem_BC13"><rect fill="#87CEEB" height="94.8433" rx="2.5" ry="2.5" style="stroke:#333333;stroke-width:1;" width="138.2769" x="1321" y="230.0573"/><text fill="#000000" font-family="Verdana" font-size="11" font-style="italic" lengthAdjust="spacing" textLength="73.1006" x="1353.5881" y="251.1164">&#171;supporting&#187;</text><text fill="#000000" font-family="Verdana" font-size="11" font-weight="bold" lengthAdjust="spacing" textLength="56.0581" x="1331" y="264.485">BC-EI-13</text><text fill="#000000" font-family="Verdana" font-size="11" lengthAdjust="spacing" textLength="40.1597" x="1331" y="277.8537">Odonto</text><text fill="#000000" font-family="Verdana" font-size="11" lengthAdjust="spacing" textLength="24.9648" x="1331" y="291.2223">Puro</text><line style="stroke:#333333;stroke-width:1;" x1="1322" x2="1458.2769" y1="293.5319" y2="293.5319"/><text fill="#000000" font-family="Verdana" font-size="11" lengthAdjust="spacing" textLength="118.2769" x="1331" y="308.591">pk_odonto_puro_pim</text></g><!--entity BC14--><g id="elem_BC14"><rect fill="#87CEEB" height="94.8433" rx="2.5" ry="2.5" style="stroke:#333333;stroke-width:1;" width="113.2852" x="1490.5" y="105.0573"/><text fill="#000000" font-family="Verdana" font-size="11" font-style="italic" lengthAdjust="spacing" textLength="73.1006" x="1510.5923" y="126.1164">&#171;supporting&#187;</text><text fill="#000000" font-family="Verdana" font-size="11" font-weight="bold" lengthAdjust="spacing" textLength="56.0581" x="1500.5" y="139.485">BC-EI-14</text><text fill="#000000" font-family="Verdana" font-size="11" lengthAdjust="spacing" textLength="47.314" x="1500.5" y="152.8537">Coligada</text><text fill="#000000" font-family="Verdana" font-size="11" lengthAdjust="spacing" textLength="65.4468" x="1500.5" y="166.2223">BITIX/SIGO</text><line style="stroke:#333333;stroke-width:1;" x1="1491.5" x2="1602.7852" y1="168.5319" y2="168.5319"/><text fill="#000000" font-family="Verdana" font-size="11" lengthAdjust="spacing" textLength="93.2852" x="1500.5" y="183.591">pk_coligada_pim</text></g><!--entity BC09--><g id="elem_BC09"><rect fill="#D3D3D3" height="94.8433" rx="2.5" ry="2.5" style="stroke:#333333;stroke-width:1;" width="150.6948" x="1638.5" y="105.0573"/><text fill="#000000" font-family="Verdana" font-size="11" font-style="italic" lengthAdjust="spacing" textLength="54.5273" x="1686.5837" y="126.1164">&#171;generic&#187;</text><text fill="#000000" font-family="Verdana" font-size="11" font-weight="bold" lengthAdjust="spacing" textLength="56.0581" x="1648.5" y="139.485">BC-EI-09</text><text fill="#000000" font-family="Verdana" font-size="11" lengthAdjust="spacing" textLength="72.3325" x="1648.5" y="152.8537">Configura&#231;&#227;o</text><text fill="#000000" font-family="Verdana" font-size="11" lengthAdjust="spacing" textLength="61.7354" x="1648.5" y="166.2223">de Sistema</text><line style="stroke:#333333;stroke-width:1;" x1="1639.5" x2="1788.1948" y1="168.5319" y2="168.5319"/><text fill="#000000" font-family="Verdana" font-size="11" lengthAdjust="spacing" textLength="130.6948" x="1648.5" y="183.591">pk_config_sistema_pim</text></g><!--entity BC10--><g id="elem_BC10"><rect fill="#D3D3D3" height="94.8433" rx="2.5" ry="2.5" style="stroke:#333333;stroke-width:1;" width="175.1602" x="99.5" y="533.0573"/><text fill="#000000" font-family="Verdana" font-size="11" font-style="italic" lengthAdjust="spacing" textLength="54.5273" x="159.8164" y="554.1164">&#171;generic&#187;</text><text fill="#000000" font-family="Verdana" font-size="11" font-weight="bold" lengthAdjust="spacing" textLength="56.0581" x="109.5" y="567.485">BC-EI-10</text><text fill="#000000" font-family="Verdana" font-size="11" lengthAdjust="spacing" textLength="59.646" x="109.5" y="580.8537">Integra&#231;&#227;o</text><text fill="#000000" font-family="Verdana" font-size="11" lengthAdjust="spacing" textLength="42.6143" x="109.5" y="594.2223">Externa</text><line style="stroke:#333333;stroke-width:1;" x1="100.5" x2="273.6602" y1="596.5319" y2="596.5319"/><text fill="#000000" font-family="Verdana" font-size="11" lengthAdjust="spacing" textLength="155.1602" x="109.5" y="611.591">pk_integracao_externa_pim</text></g><!--entity EXT_CAD--><g id="elem_EXT_CAD"><rect fill="#FFA07A" height="73.4746" rx="2.5" ry="2.5" style="stroke:#333333;stroke-width:1;" width="120.9282" x="577.5" y="544.0573"/><text fill="#000000" font-family="Verdana" font-size="11" font-style="italic" lengthAdjust="spacing" textLength="59.4097" x="608.2593" y="565.1164">&#171;external&#187;</text><text fill="#000000" font-family="Verdana" font-size="11" lengthAdjust="spacing" textLength="100.9282" x="587.5" y="578.485">pr_cadastramento</text><text fill="#000000" font-family="Verdana" font-size="11" lengthAdjust="spacing" textLength="86.4102" x="587.5" y="591.8537">_empresa_prov</text><text fill="#000000" font-family="Verdana" font-size="11" lengthAdjust="spacing" textLength="78.1279" x="587.5" y="605.2223">(4.991 linhas)</text></g><!--entity EXT_INT2--><g id="elem_EXT_INT2"><rect fill="#FFA07A" height="60.106" rx="2.5" ry="2.5" style="stroke:#333333;stroke-width:1;" width="120.9282" x="939.5" y="550.5573"/><text fill="#000000" font-family="Verdana" font-size="11" font-style="italic" lengthAdjust="spacing" textLength="59.4097" x="970.2593" y="571.6164">&#171;external&#187;</text><text fill="#000000" font-family="Verdana" font-size="11" lengthAdjust="spacing" textLength="100.9282" x="949.5" y="584.985">pr_cadastramento</text><text fill="#000000" font-family="Verdana" font-size="11" lengthAdjust="spacing" textLength="57.3955" x="949.5" y="598.3537">_internet2</text></g><!--entity EXT_CRIT--><g id="elem_EXT_CRIT"><rect fill="#FFA07A" height="60.106" rx="2.5" ry="2.5" style="stroke:#333333;stroke-width:1;" width="79.4097" x="1283.5" y="706.5573"/><text fill="#000000" font-family="Verdana" font-size="11" font-style="italic" lengthAdjust="spacing" textLength="59.4097" x="1293.5" y="727.6164">&#171;external&#187;</text><text fill="#000000" font-family="Verdana" font-size="11" lengthAdjust="spacing" textLength="51.6753" x="1297.3672" y="740.985">pr_critica</text><text fill="#000000" font-family="Verdana" font-size="11" lengthAdjust="spacing" textLength="50.4023" x="1297.3672" y="754.3537">_internet</text></g><!--entity EXT_ODON--><g id="elem_EXT_ODON"><rect fill="#FFA07A" height="60.106" rx="2.5" ry="2.5" style="stroke:#333333;stroke-width:1;" width="106.4102" x="691" y="706.5573"/><text fill="#000000" font-family="Verdana" font-size="11" font-style="italic" lengthAdjust="spacing" textLength="59.4097" x="714.5002" y="727.6164">&#171;external&#187;</text><text fill="#000000" font-family="Verdana" font-size="11" lengthAdjust="spacing" textLength="71.8921" x="701" y="740.985">pr_odon_cad</text><text fill="#000000" font-family="Verdana" font-size="11" lengthAdjust="spacing" textLength="86.4102" x="701" y="754.3537">_empresa_prov</text></g><!--entity EXT_NAT--><g id="elem_EXT_NAT"><rect fill="#FFA07A" height="60.106" rx="2.5" ry="2.5" style="stroke:#333333;stroke-width:1;" width="124.4302" x="832" y="706.5573"/><text fill="#000000" font-family="Verdana" font-size="11" font-style="italic" lengthAdjust="spacing" textLength="59.4097" x="864.5103" y="727.6164">&#171;external&#187;</text><text fill="#000000" font-family="Verdana" font-size="11" lengthAdjust="spacing" textLength="104.4302" x="842" y="740.985">PR_NAT_JURIDICA</text><text fill="#000000" font-family="Verdana" font-size="11" lengthAdjust="spacing" textLength="41.0137" x="842" y="754.3537">_ODON</text></g><!--entity EXT_NEOW--><g id="elem_EXT_NEOW"><rect fill="#FFA07A" height="73.4746" rx="2.5" ry="2.5" style="stroke:#333333;stroke-width:1;" width="90.3452" x="276" y="700.0573"/><text fill="#000000" font-family="Verdana" font-size="11" font-style="italic" lengthAdjust="spacing" textLength="59.4097" x="291.4678" y="721.1164">&#171;external&#187;</text><text fill="#000000" font-family="Verdana" font-size="11" lengthAdjust="spacing" textLength="49.4033" x="286" y="734.485">fn_checa</text><text fill="#000000" font-family="Verdana" font-size="11" lengthAdjust="spacing" textLength="70.3452" x="286" y="747.8537">_divergencia</text><text fill="#000000" font-family="Verdana" font-size="11" lengthAdjust="spacing" textLength="53.5659" x="286" y="761.2223">(Neoway)</text></g><!--entity EXT_ORC--><g id="elem_EXT_ORC"><rect fill="#FFA07A" height="60.106" rx="2.5" ry="2.5" style="stroke:#333333;stroke-width:1;" width="85.9248" x="12" y="706.5573"/><text fill="#000000" font-family="Verdana" font-size="11" font-style="italic" lengthAdjust="spacing" textLength="59.4097" x="25.2576" y="727.6164">&#171;external&#187;</text><text fill="#000000" font-family="Verdana" font-size="11" lengthAdjust="spacing" textLength="65.9248" x="22" y="740.985">fn_vi_checa</text><text fill="#000000" font-family="Verdana" font-size="11" lengthAdjust="spacing" textLength="65.9248" x="22" y="754.3537">_orcamento</text></g><!--entity EXT_ADES--><g id="elem_EXT_ADES"><rect fill="#FFA07A" height="60.106" rx="2.5" ry="2.5" style="stroke:#333333;stroke-width:1;" width="106.7163" x="133.5" y="706.5573"/><text fill="#000000" font-family="Verdana" font-size="11" font-style="italic" lengthAdjust="spacing" textLength="59.4097" x="157.1533" y="727.6164">&#171;external&#187;</text><text fill="#000000" font-family="Verdana" font-size="11" lengthAdjust="spacing" textLength="55.2632" x="143.5" y="740.985">fn_efetiva</text><text fill="#000000" font-family="Verdana" font-size="11" lengthAdjust="spacing" textLength="86.7163" x="143.5" y="754.3537">_adesao_digital</text></g><!--entity EXT_BITIX--><g id="elem_EXT_BITIX"><rect fill="#FFA07A" height="60.106" rx="2.5" ry="2.5" style="stroke:#333333;stroke-width:1;" width="143.9111" x="1687" y="372.5573"/><text fill="#000000" font-family="Verdana" font-size="11" font-style="italic" lengthAdjust="spacing" textLength="59.4097" x="1729.2507" y="393.6164">&#171;external&#187;</text><text fill="#000000" font-family="Verdana" font-size="11" lengthAdjust="spacing" textLength="123.9111" x="1697" y="406.985">PR_COLIGA_EMPRESA</text><text fill="#000000" font-family="Verdana" font-size="11" lengthAdjust="spacing" textLength="38.1079" x="1697" y="420.3537">_BITIX</text></g><!--entity EXT_VENDA--><g id="elem_EXT_VENDA"><rect fill="#FFA07A" height="60.106" rx="2.5" ry="2.5" style="stroke:#333333;stroke-width:1;" width="116.3467" x="1866" y="372.5573"/><text fill="#000000" font-family="Verdana" font-size="11" font-style="italic" lengthAdjust="spacing" textLength="59.4097" x="1894.4685" y="393.6164">&#171;external&#187;</text><text fill="#000000" font-family="Verdana" font-size="11" lengthAdjust="spacing" textLength="96.3467" x="1876" y="406.985">PK_VENDA_JSON</text><text fill="#000000" font-family="Verdana" font-size="11" lengthAdjust="spacing" textLength="59.9844" x="1876" y="420.3537">.pr_efetiva</text></g><!--entity EXT_COLIG--><g id="elem_EXT_COLIG"><rect fill="#FFA07A" height="60.106" rx="2.5" ry="2.5" style="stroke:#333333;stroke-width:1;" width="127.0405" x="1524.5" y="372.5573"/><text fill="#000000" font-family="Verdana" font-size="11" font-style="italic" lengthAdjust="spacing" textLength="59.4097" x="1558.3154" y="393.6164">&#171;external&#187;</text><text fill="#000000" font-family="Verdana" font-size="11" lengthAdjust="spacing" textLength="67.1172" x="1534.5" y="406.985">pr_processa</text><text fill="#000000" font-family="Verdana" font-size="11" lengthAdjust="spacing" textLength="107.0405" x="1534.5" y="420.3537">_empresa_coligada</text></g><!--entity EXT_OBRIG--><g id="elem_EXT_OBRIG"><rect fill="#FFA07A" height="60.106" rx="2.5" ry="2.5" style="stroke:#333333;stroke-width:1;" width="126.4175" x="1096" y="550.5573"/><text fill="#000000" font-family="Verdana" font-size="11" font-style="italic" lengthAdjust="spacing" textLength="59.4097" x="1129.5039" y="571.6164">&#171;external&#187;</text><text fill="#000000" font-family="Verdana" font-size="11" lengthAdjust="spacing" textLength="106.4175" x="1106" y="584.985">pr_odon_obrigacao</text><text fill="#000000" font-family="Verdana" font-size="11" lengthAdjust="spacing" textLength="58.6899" x="1106" y="598.3537">_agregado</text></g><!--entity EXT_SYS--><g id="elem_EXT_SYS"><rect fill="#FFA07A" height="60.106" rx="2.5" ry="2.5" style="stroke:#333333;stroke-width:1;" width="80.3765" x="2017" y="372.5573"/><text fill="#000000" font-family="Verdana" font-size="11" font-style="italic" lengthAdjust="spacing" textLength="59.4097" x="2027.4834" y="393.6164">&#171;external&#187;</text><text fill="#000000" font-family="Verdana" font-size="11" lengthAdjust="spacing" textLength="60.3765" x="2027" y="406.985">fn_registro</text><text fill="#000000" font-family="Verdana" font-size="11" lengthAdjust="spacing" textLength="49.6665" x="2027" y="420.3537">_sistema</text></g><!--link BC01 to BC02--><g id="link_BC01_BC02"><path d="M1064.9,155.3273 C886.23,160.8573 392.26,180.5373 340,230.0573 C306.88,261.4373 303.3935,309.7555 306.4435,348.8655 " fill="none" id="BC01-to-BC02" style="stroke:#555555;stroke-width:1;"/><polygon fill="#555555" points="306.91,354.8473,310.1981,345.5636,306.5213,349.8624,302.2224,346.1855,306.91,354.8473" style="stroke:#555555;stroke-width:1;"/><text fill="#000000" font-family="Verdana" font-size="9" lengthAdjust="spacing" textLength="78.3149" x="341" y="281.6056">U/D (Conformist)</text></g><!--link BC01 to BC03--><g id="link_BC01_BC03"><path d="M1192.59,200.4073 C1201.79,209.4173 1210.37,219.3973 1217,230.0573 C1270.41,315.9173 1227.77,360.6473 1275,450.0573 C1283.24,465.6573 1293.07,464.2973 1301,480.0573 C1309.19,496.3373 1313.2418,509.7305 1316.4818,526.9705 " fill="none" id="BC01-to-BC03" style="stroke:#555555;stroke-width:1;"/><polygon fill="#555555" points="1317.59,532.8673,1319.8589,523.2833,1316.6665,527.9533,1311.9965,524.761,1317.59,532.8673" style="stroke:#555555;stroke-width:1;"/><text fill="#000000" font-family="Verdana" font-size="9" lengthAdjust="spacing" textLength="78.3149" x="1276" y="406.6056">U/D (Conformist)</text></g><!--link BC01 to BC04--><g id="link_BC01_BC04"><path d="M1064.71,158.7273 C966.74,167.8073 786.21,189.6073 737,230.0573 C699.24,261.0973 682.8463,309.8598 674.7863,349.1298 " fill="none" id="BC01-to-BC04" style="stroke:#555555;stroke-width:1;"/><polygon fill="#555555" points="673.58,355.0073,679.3078,346.9953,674.5853,350.1094,671.4712,345.3869,673.58,355.0073" style="stroke:#555555;stroke-width:1;"/><text fill="#000000" font-family="Verdana" font-size="9" lengthAdjust="spacing" textLength="78.3149" x="738" y="281.6056">U/D (Conformist)</text></g><!--link BC01 to BC05--><g id="link_BC01_BC05"><path d="M1064.98,160.2673 C1016.71,168.6673 952.31,187.5673 913,230.0573 C872.09,274.2773 840.6873,442.4142 827.0173,526.9942 " fill="none" id="BC01-to-BC05" style="stroke:#555555;stroke-width:1;"/><polygon fill="#555555" points="826.06,532.9173,831.4447,524.6708,826.8578,527.9814,823.5472,523.3944,826.06,532.9173" style="stroke:#555555;stroke-width:1;"/><text fill="#000000" font-family="Verdana" font-size="9" lengthAdjust="spacing" textLength="78.3149" x="863" y="406.6056">U/D (Conformist)</text></g><!--link BC01 to BC06--><g id="link_BC01_BC06"><path d="M1129,200.2073 C1129,244.4073 1129,304.4273 1129,348.6973 " fill="none" id="BC01-to-BC06" style="stroke:#555555;stroke-width:1;"/><polygon fill="#555555" points="1129,354.6973,1133,345.6973,1129,349.6973,1125,345.6973,1129,354.6973" style="stroke:#555555;stroke-width:1;"/><text fill="#000000" font-family="Verdana" font-size="9" lengthAdjust="spacing" textLength="78.3149" x="1130" y="281.6056">U/D (Conformist)</text></g><!--link BC01 to BC07--><g id="link_BC01_BC07"><path d="M1064.67,156.2173 C974.52,161.7473 806.77,178.6373 674,230.0573 C578.35,267.0973 531.88,266.5773 480,355.0573 C448,409.6273 450.0925,479.0905 456.5325,527.1105 " fill="none" id="BC01-to-BC07" style="stroke:#555555;stroke-width:1;"/><polygon fill="#555555" points="457.33,533.0573,460.0982,523.6055,456.6654,528.1017,452.1692,524.6688,457.33,533.0573" style="stroke:#555555;stroke-width:1;"/><text fill="#000000" font-family="Verdana" font-size="9" lengthAdjust="spacing" textLength="78.3149" x="481" y="406.6056">U/D (Conformist)</text></g><!--link BC01 to BC08--><g id="link_BC01_BC08"><path d="M1193.17,152.5573 C1224.61,152.5573 1256.26,152.5573 1287.22,152.5573 " fill="none" id="BC01-to-BC08" style="stroke:#555555;stroke-width:1;"/><polygon fill="#555555" points="1293.22,152.5573,1284.22,148.5573,1288.22,152.5573,1284.22,156.5573,1293.22,152.5573" style="stroke:#555555;stroke-width:1;"/><text fill="#000000" font-family="Verdana" font-size="9" lengthAdjust="spacing" textLength="64.1909" x="1211.25" y="147.6056">Shared Kernel</text></g><!--link BC01 to BC09--><g id="link_BC01_BC09"><path d="M1193.34,126.5273 C1270.9,98.2873 1405.37,59.3273 1522,76.0573 C1567.38,82.5673 1578.4,88.1073 1621,105.0573 C1626.73,107.3373 1627.1027,107.3758 1632.9427,110.0158 " fill="none" id="BC01-to-BC09" style="stroke:#555555;stroke-width:1;"/><polygon fill="#555555" points="1638.41,112.4873,1631.8567,105.1351,1633.8539,110.4277,1628.5613,112.4249,1638.41,112.4873" style="stroke:#555555;stroke-width:1;"/><text fill="#000000" font-family="Verdana" font-size="9" lengthAdjust="spacing" textLength="78.3149" x="1443" y="73.1056">U/D (Conformist)</text></g><!--link BC01 to BC11--><g id="link_BC01_BC11"><path d="M1081.74,200.0573 C1071.79,209.8573 1065.5569,215.9792 1055.5969,225.7792 " fill="none" id="BC01-to-BC11" style="stroke:#555555;stroke-width:1;"/><polygon fill="#555555" points="1051.32,229.9873,1060.5407,226.5263,1054.884,226.4805,1054.9298,220.8238,1051.32,229.9873" style="stroke:#555555;stroke-width:1;"/></g><!--link BC01 to BC12--><g id="link_BC01_BC12"><path d="M1064.98,156.7173 C894.7,165.5573 433.54,192.3473 286,230.0573 C270.6,233.9973 260.1039,237.545 245.2939,243.825 " fill="none" id="BC01-to-BC12" style="stroke:#555555;stroke-width:1;"/><polygon fill="#555555" points="239.77,246.1673,249.6174,246.3364,244.3732,244.2154,246.4943,238.9712,239.77,246.1673" style="stroke:#555555;stroke-width:1;"/></g><!--link BC01 to BC13--><g id="link_BC01_BC13"><path d="M1193.01,182.6373 C1223.91,196.7773 1261.47,214.1273 1295,230.0573 C1303.38,234.0373 1306.7415,235.6389 1315.4215,239.8489 " fill="none" id="BC01-to-BC13" style="stroke:#555555;stroke-width:1;"/><polygon fill="#555555" points="1320.82,242.4673,1314.4678,234.9407,1316.3212,240.2853,1310.9766,242.1387,1320.82,242.4673" style="stroke:#555555;stroke-width:1;"/></g><!--link BC01 to BC14--><g id="link_BC01_BC14"><path d="M1193.02,111.9973 C1219.24,97.6473 1250.53,83.2873 1281,76.0573 C1353.93,58.7373 1431.434,88.1744 1485.004,115.9644 " fill="none" id="BC01-to-BC14" style="stroke:#555555;stroke-width:1;"/><polygon fill="#555555" points="1490.33,118.7273,1484.1829,111.0323,1485.8917,116.4249,1480.4991,118.1336,1490.33,118.7273" style="stroke:#555555;stroke-width:1;"/><text fill="#000000" font-family="Verdana" font-size="9" lengthAdjust="spacing" textLength="78.3149" x="1282" y="73.1056">U/D (Conformist)</text></g><!--link BC04 to BC05--><g id="link_BC04_BC05"><path d="M682.21,450.2573 C689.43,467.9873 699.31,487.5973 712,503.0573 C720.91,513.9073 727.0336,520.2207 738.3036,529.2307 " fill="none" id="BC04-to-BC05" style="stroke:#555555;stroke-width:1;"/><polygon fill="#555555" points="742.99,532.9773,738.4581,524.233,739.0846,529.8551,733.4626,530.4816,742.99,532.9773" style="stroke:#555555;stroke-width:1;"/><text fill="#000000" font-family="Verdana" font-size="9" lengthAdjust="spacing" textLength="101.8784" x="713.9888" y="490.1056">U/D &#8212; empresa sa&#250;de</text><text fill="#000000" font-family="Verdana" font-size="9" lengthAdjust="spacing" textLength="103.856" x="713" y="501.0436">criada antes da odonto</text></g><!--link BC04 to BC07--><g id="link_BC04_BC07"><path d="M577.16,445.9373 C560.82,455.8373 544.65,467.2873 531,480.0573 C514.88,495.1473 503.9741,509.8566 493.1341,527.8666 " fill="none" id="BC04-to-BC07" style="stroke:#555555;stroke-width:1;"/><polygon fill="#555555" points="490.04,533.0073,498.1083,527.359,492.6184,528.7234,491.254,523.2336,490.04,533.0073" style="stroke:#555555;stroke-width:1;"/><text fill="#000000" font-family="Verdana" font-size="9" lengthAdjust="spacing" textLength="98.7979" x="532" y="490.1056">U/D &#8212; atualiza status</text><text fill="#000000" font-family="Verdana" font-size="9" lengthAdjust="spacing" textLength="70.519" x="546.1394" y="501.0436">ap&#243;s efetiva&#231;&#227;o</text></g><!--link BC06 to BC03--><g id="link_BC06_BC03"><path d="M1151.14,450.0773 C1161.25,468.0773 1174.46,487.9473 1190,503.0573 C1193.49,506.4473 1231.0226,527.9022 1267.1426,548.2522 " fill="none" id="BC06-to-BC03" style="stroke:#555555;stroke-width:1;"/><polygon fill="#555555" points="1272.37,551.1973,1266.4923,543.2946,1268.0138,548.743,1262.5654,550.2646,1272.37,551.1973" style="stroke:#555555;stroke-width:1;"/><text fill="#000000" font-family="Verdana" font-size="9" lengthAdjust="spacing" textLength="105.5522" x="1191" y="490.1056">U/D &#8212; consulta cr&#237;ticas</text><text fill="#000000" font-family="Verdana" font-size="9" lengthAdjust="spacing" textLength="82.3887" x="1202.5818" y="501.0436">antes de autorizar</text></g><!--link BC02 to BC10--><g id="link_BC02_BC10"><path d="M280.3,450.2573 C261.85,475.8173 242.581,502.5318 224.151,528.0718 " fill="none" id="BC02-to-BC10" style="stroke:#555555;stroke-width:1;"/><polygon fill="#555555" points="220.64,532.9373,229.1501,527.9797,223.5658,528.8827,222.6628,523.2984,220.64,532.9373" style="stroke:#555555;stroke-width:1;"/><text fill="#000000" font-family="Verdana" font-size="9" lengthAdjust="spacing" textLength="71.7012" x="260" y="490.1056">ACL &#8212; Neoway,</text><text fill="#000000" font-family="Verdana" font-size="9" lengthAdjust="spacing" textLength="48.2168" x="271.7422" y="501.0436">or&#231;amento</text></g><!--link BC12 to BC10--><g id="link_BC12_BC10"><path d="M166.23,325.1873 C164.05,334.9773 162.13,345.2973 161,355.0573 C156.13,396.9973 156.82,408.0373 161,450.0573 C163.76,477.7773 168.4256,502.5053 173.9656,526.9853 " fill="none" id="BC12-to-BC10" style="stroke:#555555;stroke-width:1;"/><polygon fill="#555555" points="175.29,532.8373,177.2048,523.1764,174.1864,527.9606,169.4021,524.9422,175.29,532.8373" style="stroke:#555555;stroke-width:1;"/><text fill="#000000" font-family="Verdana" font-size="9" lengthAdjust="spacing" textLength="71.7012" x="162" y="401.1056">ACL &#8212; Neoway,</text><text fill="#000000" font-family="Verdana" font-size="9" lengthAdjust="spacing" textLength="62.6704" x="166.5154" y="412.0436">ades&#227;o digital</text></g><!--link BC13 to BC03--><g id="link_BC13_BC03"><path d="M1383.49,325.4273 C1376.67,371.1473 1364.74,442.4673 1349,503.0573 C1346.46,512.8373 1345.1734,517.4606 1341.9334,527.2606 " fill="none" id="BC13-to-BC03" style="stroke:#555555;stroke-width:1;"/><polygon fill="#555555" points="1340.05,532.9573,1346.6729,525.6678,1341.6195,528.21,1339.0773,523.1566,1340.05,532.9573" style="stroke:#555555;stroke-width:1;"/><text fill="#000000" font-family="Verdana" font-size="9" lengthAdjust="spacing" textLength="68.3218" x="1380" y="401.1056">U/D &#8212; executa</text><text fill="#000000" font-family="Verdana" font-size="9" lengthAdjust="spacing" textLength="66.1992" x="1381.0613" y="412.0436">cr&#237;ticas odonto</text></g><!--link BC04 to EXT_CAD--><g id="link_BC04_EXT_CAD"><path d="M648.67,450.3173 C645.56,460.0073 642.77,470.2573 641,480.0573 C637.22,500.9773 636.3328,518.7575 636.4828,537.8275 " fill="none" id="BC04-to-EXT_CAD" style="stroke:#555555;stroke-width:1;stroke-dasharray:7.0,7.0;"/><polygon fill="#555555" points="636.53,543.8273,640.4591,534.7961,636.4907,538.8275,632.4593,534.859,636.53,543.8273" style="stroke:#555555;stroke-width:1;"/><text fill="#000000" font-family="Verdana" font-size="9" lengthAdjust="spacing" textLength="29.0479" x="642" y="495.6056">&#171;ACL&#187;</text></g><!--link BC05 to EXT_ODON--><g id="link_BC05_EXT_ODON"><path d="M796.29,628.1773 C783.88,653.6773 771.5064,679.0727 760.7664,701.1327 " fill="none" id="BC05-to-EXT_ODON" style="stroke:#555555;stroke-width:1;stroke-dasharray:7.0,7.0;"/><polygon fill="#555555" points="758.14,706.5273,765.676,700.1863,760.3287,702.0318,758.4832,696.6844,758.14,706.5273" style="stroke:#555555;stroke-width:1;"/><text fill="#000000" font-family="Verdana" font-size="9" lengthAdjust="spacing" textLength="29.0479" x="783" y="668.1056">&#171;ACL&#187;</text></g><!--link BC05 to EXT_NAT--><g id="link_BC05_EXT_NAT"><path d="M841.71,628.1773 C854.12,653.6773 866.4936,679.0727 877.2336,701.1327 " fill="none" id="BC05-to-EXT_NAT" style="stroke:#555555;stroke-width:1;stroke-dasharray:7.0,7.0;"/><polygon fill="#555555" points="879.86,706.5273,879.5168,696.6844,877.6713,702.0318,872.324,700.1863,879.86,706.5273" style="stroke:#555555;stroke-width:1;"/><text fill="#000000" font-family="Verdana" font-size="9" lengthAdjust="spacing" textLength="29.0479" x="862" y="668.1056">&#171;ACL&#187;</text></g><!--link BC06 to EXT_INT2--><g id="link_BC06_EXT_INT2"><path d="M1094.77,450.2573 C1071.48,482.0373 1044.9272,518.2581 1024.9672,545.4881 " fill="none" id="BC06-to-EXT_INT2" style="stroke:#555555;stroke-width:1;stroke-dasharray:7.0,7.0;"/><polygon fill="#555555" points="1021.42,550.3273,1029.9669,545.4333,1024.376,546.2947,1023.5147,540.7038,1021.42,550.3273" style="stroke:#555555;stroke-width:1;"/><text fill="#000000" font-family="Verdana" font-size="9" lengthAdjust="spacing" textLength="29.0479" x="1074" y="495.6056">&#171;ACL&#187;</text></g><!--link BC03 to EXT_CRIT--><g id="link_BC03_EXT_CRIT"><path d="M1323,628.1773 C1323,653.6773 1323,678.4673 1323,700.5273 " fill="none" id="BC03-to-EXT_CRIT" style="stroke:#555555;stroke-width:1;stroke-dasharray:7.0,7.0;"/><polygon fill="#555555" points="1323,706.5273,1327,697.5273,1323,701.5273,1319,697.5273,1323,706.5273" style="stroke:#555555;stroke-width:1;"/><text fill="#000000" font-family="Verdana" font-size="9" lengthAdjust="spacing" textLength="29.0479" x="1324" y="668.1056">&#171;ACL&#187;</text></g><!--link BC10 to EXT_NEOW--><g id="link_BC10_EXT_NEOW"><path d="M227.57,628.1773 C247.6,651.1973 267.4427,673.9999 285.9927,695.3299 " fill="none" id="BC10-to-EXT_NEOW" style="stroke:#555555;stroke-width:1;stroke-dasharray:7.0,7.0;"/><polygon fill="#555555" points="289.93,699.8573,287.0423,690.4413,286.6489,696.0845,281.0057,695.6911,289.93,699.8573" style="stroke:#555555;stroke-width:1;"/><text fill="#000000" font-family="Verdana" font-size="9" lengthAdjust="spacing" textLength="29.0479" x="264" y="668.1056">&#171;ACL&#187;</text></g><!--link BC10 to EXT_ORC--><g id="link_BC10_EXT_ORC"><path d="M147.04,628.1773 C125.18,653.6773 102.6937,679.9109 83.7937,701.9709 " fill="none" id="BC10-to-EXT_ORC" style="stroke:#555555;stroke-width:1;stroke-dasharray:7.0,7.0;"/><polygon fill="#555555" points="79.89,706.5273,88.7832,702.2952,83.1431,702.7303,82.708,697.0902,79.89,706.5273" style="stroke:#555555;stroke-width:1;"/><text fill="#000000" font-family="Verdana" font-size="9" lengthAdjust="spacing" textLength="29.0479" x="122" y="668.1056">&#171;ACL&#187;</text></g><!--link BC10 to EXT_ADES--><g id="link_BC10_EXT_ADES"><path d="M187,628.1773 C187,653.6773 187,678.4673 187,700.5273 " fill="none" id="BC10-to-EXT_ADES" style="stroke:#555555;stroke-width:1;stroke-dasharray:7.0,7.0;"/><polygon fill="#555555" points="187,706.5273,191,697.5273,187,701.5273,183,697.5273,187,706.5273" style="stroke:#555555;stroke-width:1;"/><text fill="#000000" font-family="Verdana" font-size="9" lengthAdjust="spacing" textLength="29.0479" x="188" y="668.1056">&#171;ACL&#187;</text></g><!--link BC14 to EXT_BITIX--><g id="link_BC14_EXT_BITIX"><path d="M1588.23,200.3773 C1596.78,210.1573 1605.71,220.4173 1614,230.0573 C1656.73,279.7073 1701.9664,333.4484 1730.6664,367.6984 " fill="none" id="BC14-to-EXT_BITIX" style="stroke:#555555;stroke-width:1;stroke-dasharray:7.0,7.0;"/><polygon fill="#555555" points="1734.52,372.2973,1731.8054,362.8299,1731.3086,368.4649,1725.6736,367.9681,1734.52,372.2973" style="stroke:#555555;stroke-width:1;"/><text fill="#000000" font-family="Verdana" font-size="9" lengthAdjust="spacing" textLength="29.0479" x="1695" y="281.6056">&#171;ACL&#187;</text></g><!--link BC14 to EXT_VENDA--><g id="link_BC14_EXT_VENDA"><path d="M1603.85,191.5973 C1609.52,194.6873 1615.3,197.5673 1621,200.0573 C1668.23,220.6673 1687.69,205.4973 1733,230.0573 C1801.76,267.3273 1862.0531,329.587 1895.6631,367.897 " fill="none" id="BC14-to-EXT_VENDA" style="stroke:#555555;stroke-width:1;stroke-dasharray:7.0,7.0;"/><polygon fill="#555555" points="1899.62,372.4073,1896.6914,363.0039,1896.3225,368.6487,1890.6777,368.2798,1899.62,372.4073" style="stroke:#555555;stroke-width:1;"/><text fill="#000000" font-family="Verdana" font-size="9" lengthAdjust="spacing" textLength="29.0479" x="1853" y="281.6056">&#171;ACL&#187;</text></g><!--link BC14 to EXT_COLIG--><g id="link_BC14_EXT_COLIG"><path d="M1554.71,200.2073 C1563.06,250.7173 1575.1515,323.8176 1582.1715,366.2876 " fill="none" id="BC14-to-EXT_COLIG" style="stroke:#555555;stroke-width:1;stroke-dasharray:7.0,7.0;"/><polygon fill="#555555" points="1583.15,372.2073,1585.6287,362.6755,1582.3346,367.2742,1577.7358,363.9801,1583.15,372.2073" style="stroke:#555555;stroke-width:1;"/><text fill="#000000" font-family="Verdana" font-size="9" lengthAdjust="spacing" textLength="29.0479" x="1576" y="281.6056">&#171;ACL&#187;</text></g><!--link BC11 to EXT_INT2--><g id="link_BC11_EXT_INT2"><path d="M1003.38,325.2573 C1002.54,388.1673 1001.1593,492.2678 1000.4693,544.4878 " fill="none" id="BC11-to-EXT_INT2" style="stroke:#555555;stroke-width:1;stroke-dasharray:7.0,7.0;"/><polygon fill="#555555" points="1000.39,550.4873,1004.5086,541.5409,1000.4561,545.4877,996.5093,541.4352,1000.39,550.4873" style="stroke:#555555;stroke-width:1;"/><text fill="#000000" font-family="Verdana" font-size="9" lengthAdjust="spacing" textLength="29.0479" x="1004" y="406.6056">&#171;ACL&#187;</text></g><!--link BC06 to EXT_OBRIG--><g id="link_BC06_EXT_OBRIG"><path d="M1117.84,450.0873 C1115.49,466.9473 1114.82,486.0273 1119,503.0573 C1123.08,519.6473 1128.4181,531.4597 1136.4581,545.1897 " fill="none" id="BC06-to-EXT_OBRIG" style="stroke:#555555;stroke-width:1;stroke-dasharray:7.0,7.0;"/><polygon fill="#555555" points="1139.49,550.3673,1138.3939,540.5796,1136.9634,546.0526,1131.4904,544.6222,1139.49,550.3673" style="stroke:#555555;stroke-width:1;"/><text fill="#000000" font-family="Verdana" font-size="9" lengthAdjust="spacing" textLength="29.0479" x="1120" y="495.6056">&#171;ACL&#187;</text></g><!--link BC09 to EXT_SYS--><g id="link_BC09_EXT_SYS"><path d="M1789.67,161.6173 C1843.05,170.6573 1913.57,189.7773 1963,230.0573 C2009.19,267.6973 2034.373,328.6219 2046.803,366.8119 " fill="none" id="BC09-to-EXT_SYS" style="stroke:#555555;stroke-width:1;stroke-dasharray:7.0,7.0;"/><polygon fill="#555555" points="2048.66,372.5173,2049.6781,362.7212,2047.1125,367.7628,2042.0709,365.1972,2048.66,372.5173" style="stroke:#555555;stroke-width:1;"/><text fill="#000000" font-family="Verdana" font-size="9" lengthAdjust="spacing" textLength="29.0479" x="2030" y="281.6056">&#171;ACL&#187;</text></g><rect fill="none" height="235.1904" id="_legend" rx="7.5" ry="7.5" style="stroke:#000000;stroke-width:1;" width="342.377" x="1741.9995" y="783.5319"/><text fill="#000000" font-family="Verdana" font-size="14" font-weight="bold" lengthAdjust="spacing" textLength="26.7012" x="1751.7847" y="804.6071">Cor</text><text fill="#000000" font-family="Verdana" font-size="14" font-weight="bold" lengthAdjust="spacing" textLength="33.7285" x="1788.0562" y="804.6071">Tipo</text><rect fill="#FFD700" height="17.0146" style="stroke:none;stroke-width:1;" width="36.2715" x="1746.9995" y="807.5466"/><text fill="#000000" font-family="Verdana" font-size="14" lengthAdjust="spacing" textLength="4.9219" x="1746.9995" y="821.6218">&#160;</text><text fill="#000000" font-family="Verdana" font-size="14" lengthAdjust="spacing" textLength="91.5195" x="1788.1929" y="821.6218">Core Domain</text><rect fill="#87CEEB" height="17.0146" style="stroke:none;stroke-width:1;" width="36.2715" x="1746.9995" y="824.5612"/><text fill="#000000" font-family="Verdana" font-size="14" lengthAdjust="spacing" textLength="4.9219" x="1746.9995" y="838.6364">&#160;</text><text fill="#000000" font-family="Verdana" font-size="14" lengthAdjust="spacing" textLength="161.3076" x="1788.1929" y="838.6364">Supporting Subdomain</text><rect fill="#D3D3D3" height="17.0146" style="stroke:none;stroke-width:1;" width="36.2715" x="1746.9995" y="841.5759"/><text fill="#000000" font-family="Verdana" font-size="14" lengthAdjust="spacing" textLength="4.9219" x="1746.9995" y="855.6511">&#160;</text><text fill="#000000" font-family="Verdana" font-size="14" lengthAdjust="spacing" textLength="137.5254" x="1788.1929" y="855.6511">Generic Subdomain</text><rect fill="#FFA07A" height="17.0146" style="stroke:none;stroke-width:1;" width="36.2715" x="1746.9995" y="858.5905"/><text fill="#000000" font-family="Verdana" font-size="14" lengthAdjust="spacing" textLength="4.9219" x="1746.9995" y="872.6657">&#160;</text><text fill="#000000" font-family="Verdana" font-size="14" lengthAdjust="spacing" textLength="216.0293" x="1788.1929" y="872.6657">External Dependency (Legacy)</text><line style="stroke:#000000;stroke-width:1;" x1="1746.9995" x2="2009.144" y1="790.5319" y2="790.5319"/><line style="stroke:#000000;stroke-width:1;" x1="1746.9995" x2="2009.144" y1="807.5466" y2="807.5466"/><line style="stroke:#000000;stroke-width:1;" x1="1746.9995" x2="2009.144" y1="824.5612" y2="824.5612"/><line style="stroke:#000000;stroke-width:1;" x1="1746.9995" x2="2009.144" y1="841.5759" y2="841.5759"/><line style="stroke:#000000;stroke-width:1;" x1="1746.9995" x2="2009.144" y1="858.5905" y2="858.5905"/><line style="stroke:#000000;stroke-width:1;" x1="1746.9995" x2="2009.144" y1="875.6052" y2="875.6052"/><line style="stroke:#000000;stroke-width:1;" x1="1746.9995" x2="1746.9995" y1="790.5319" y2="875.6052"/><line style="stroke:#000000;stroke-width:1;" x1="1783.271" x2="1783.271" y1="790.5319" y2="875.6052"/><line style="stroke:#000000;stroke-width:1;" x1="2009.144" x2="2009.144" y1="790.5319" y2="875.6052"/><text fill="#000000" font-family="Verdana" font-size="14" lengthAdjust="spacing" textLength="19.0723" x="1746.9995" y="891.6804">---</text><text fill="#000000" font-family="Verdana" font-size="14" font-weight="bold" lengthAdjust="spacing" textLength="225.1006" x="1746.9995" y="908.695">Nota&#231;&#227;o de Relacionamento:</text><text fill="#000000" font-family="Verdana" font-size="14" lengthAdjust="spacing" textLength="211.9209" x="1746.9995" y="925.7096">U/D = Upstream/Downstream</text><text fill="#000000" font-family="Verdana" font-size="14" lengthAdjust="spacing" textLength="200.8262" x="1746.9995" y="942.7243">ACL = Anti-Corruption Layer</text><text fill="#000000" font-family="Verdana" font-size="14" lengthAdjust="spacing" textLength="145.3457" x="1746.9995" y="959.7389">SK  = Shared Kernel</text><text fill="#000000" font-family="Verdana" font-size="14" lengthAdjust="spacing" textLength="19.0723" x="1746.9995" y="976.7536">---</text><text fill="#000000" font-family="Verdana" font-size="14" lengthAdjust="spacing" textLength="249.0537" x="1746.9995" y="993.7682">14 BCs | 17 External Dependencies</text><text fill="#000000" font-family="Verdana" font-size="14" lengthAdjust="spacing" textLength="332.377" x="1746.9995" y="1010.7829">110 Story Points | 5 Features | 18 User Stories</text><text fill="#000000" font-family="Verdana" font-size="14" lengthAdjust="spacing" textLength="518.2803" x="788.0481" y="1043.7975">Mapa de Contextos &#8212; 14 Bounded Contexts + 17 Depend&#234;ncias Externas</text><!--SRC=[hLZDRjj64BxhARRseRPQsQ9aMtPWkw0esc1YaO8efoaWG5YJQtaHYiikASTEKw3ddli2GGy12lJKMwzwapv9PtSfYf99LMx20B6i-UQRdTdvCxzAxiY4e2Z0DAmaD0a8CbYOa8S4TN64_ldbDnJn4Rab2Rt78meI7f84xPZgczcdsUyCzQpkRiN3KK9PADGmyZCQ5aiIxG2rsJJqYJyNnEWRfBLGXqGaz6T_X1x5CJ8VX04SLohnMnf6cEC9uiHBS3Y6a_rKGV2qiVTsp0MPmGB6JqyznidvELBFziL5frMl5oFZQHGndj1m3FZjuvPXckrYv9Y4X5DFqMvtck9VCPAe8mSI2jRrUajNICPzmYKAFNssc_AHo0k8Y4lV4rJuQ5hbvtmyCEViNHeBnRvzA9zbhXEXzJKws_W1SDkvjZjc1ncEFJ3V35nvTORJDr77wUgM_Jo-nSLjLQjjesPQjRfMhGv3X_yu9N72LVeCmzLa6eQrMcqOHc-V9DuMoguRigLjrBLAePa3OSR0FWOh3B8HR4mYJcACUY-Vi7kOZOWIZo8wUMBZeDZ6eR1XmS76cICkdltjavhZmoMmGZjCYWhD71QREH9cUfnv98xnX4XYAAys9EWjzUZi8wSiNjYwmVG1ZsvIAGRX4qD7NoOltEjUp-aFBFloyzEY8PnyZGFgfraWhgotQ0mB_qIt8EAxUGoNQbevs2YEP5Cc1P_zcL0FImjbGVGu5PWr9fh59bh2n2Nazjm7Dy79DCSSoz_N4BUAYOy5iJxrQS8unSEGe2isNj06R9pUV3dpSI6pfgbIuMECz6d29hEFmdM8ljL5NUQJ89V8de2D9lBRSajQSL5g3LKmFhsd_XG7-yFm0aze04cwi40pyHh-ullLvFtEQwytvRc3pyiElbp3MtofccecBA1ZQ2YGDDR0UhFlMfTEBZ2fT0tvmPUfkalJDlkMyVabTwAy2c_fU9erC6WiBeqJCi5vtmHc5Allvnuk1gJAhfFYsDMVDibqnkVlN8fb6rQo4YDQ_Tanx9Wzq-xCVhKDItSHHD7is_1XHpPKVmez7v47uHcS8Txztr657SbJqsRUeXSJXRFxORXpi7Toeg60XdSutXM-vVO6iVYy6OmClVCVdFCns2WciEn1OvL1TRASRedjlZLOKHKr8qwmuaknljDnxBn-hp-ozS7evNNVwbY63Xm2KQmBmBpgBLYz8_BCq0i87yjs3o6q2Nk77qk2PvlEzoiizpGZOjnJGImvVTzOqKr7DgXY7pndS9GnJN1GhAztJ7V5UyEviYxraTdjzKrN-2_RHh6w52tflngzXhJLHozTnnw6UuiLl9X0WbUkBqfNXjprpRjKIGg84nVb0BlXe0RbAQ8nvWGeokBOxYzJG2G1JyKM1iff2odMTNzmdrtTVVDADop7rhkcFN1S10K0zUsup-N95b8Vjkdlq03SZYjYkqGrdxqBQ-Togq0lqDRrVWVjYAx9-0IysTrw0cjk1ZlO37Qu6UneCrXh7Gmk-IvHk6E1S-ymXp_NNeck4HI0JZOZqxGDSOqDSSqDSIKHXkiMyuZNsaP5taDj9T9YogOLWsAvq0z3QADGDmYBAO7WWzedjfO8Mda2sF9WctqF3Ea2YAFPNp1hSd_fIEsZkNOphmqZDvu62KPUkgqA0cMR83mLE-1xp2L18oNGwe90DwuaWMgLtmv3ncUVqivNaJ5UYnQzJcwkQREho70NdP0y46-QO16Pz8HPJ3wtY0sdcmvg-6K7plZCiIplP6_lV3vJnR5FJu7d_5n6x30JYf5KBeMnj2eyoeHYrAvAcmkhC4rNf13nZ1X6LRaKPb6vK0oQLUd2MJb7oiLoIfIBPVzV5MjhFLx4GtR-LV599eRclYHyRevScPTon3rBBI2mElX8jeGAGX_Ea07j7NuCQCJG1_4LEatV5vt3Pv0Ir64JJCDCgjuH2QcRhVJmySPVXgaNH09sgLRM0enwDIGmwGOSf2-_OBzvH3jNC5Uznrq9XyqO_gzMRPPaVm-ZFWcmHrceolb5jGeGKOvdw3g2sKNmPBy3dLvz19cexZEaXmcjWMTygbxFNU57ma7gla8WNUhncM7niiw8uQ1Qg-2ibCG20rdfGYDwH3q6gwL07w8B0irExDIWUeokOy8bHcY0hhgFohy0]--></g></svg>