<svg xmlns="http://www.w3.org/2000/svg" xmlns:xlink="http://www.w3.org/1999/xlink" contentStyleType="text/css" height="982px" preserveAspectRatio="none" style="width:2230px;height:982px;background:#FFFFFF;" version="1.1" viewBox="0 0 2230 982" width="2230px" zoomAndPan="magnify"><title>C4 &#8212; N&#237;vel 2: Container (AS-IS) &#8212; Arquitetura Monol&#237;tica Atual</title><defs/><g><text fill="#000000" font-family="Verdana" font-size="22" font-weight="bold" lengthAdjust="spacing" textLength="779.7646" x="721.0146" y="37.1182">C4 &#8212; N&#237;vel 2: Container (AS-IS) &#8212; Arquitetura Monol&#237;tica Atual</text><!--cluster oracle--><g id="cluster_oracle"><path d="M13.5,58.7373 L320.4697,58.7373 A3.75,3.75 0 0 1 322.9697,61.2373 L329.9697,81.752 L1679.5,81.752 A2.5,2.5 0 0 1 1682,84.252 L1682,939.2373 A2.5,2.5 0 0 1 1679.5,941.7373 L13.5,941.7373 A2.5,2.5 0 0 1 11,939.2373 L11,61.2373 A2.5,2.5 0 0 1 13.5,58.7373 " fill="#FFFFFF" style="stroke:#000000;stroke-width:1;"/><line style="stroke:#000000;stroke-width:1;" x1="11" x2="329.9697" y1="81.752" y2="81.752"/><text fill="#000000" font-family="Verdana" font-size="14" font-weight="bold" lengthAdjust="spacing" textLength="305.9697" x="15" y="74.8125">Oracle Database &#8212; Schema HUMASTER</text></g><!--entity job--><g id="elem_job"><rect fill="#438DD5" height="94.1353" rx="2.5" ry="2.5" style="stroke:#333333;stroke-width:1;" width="178.0273" x="1119" y="94.7373"/><text fill="#FFFFFF" font-family="Verdana" font-size="10" font-style="italic" lengthAdjust="spacing" textLength="59.7412" x="1178.1431" y="114.791">&#171;container&#187;</text><text fill="#FFFFFF" font-family="Verdana" font-size="12" font-weight="bold" lengthAdjust="spacing" textLength="158.0273" x="1129" y="128.9551">DBMS_SCHEDULER JOB</text><text fill="#FFFFFF" font-family="Verdana" font-size="9" lengthAdjust="spacing" textLength="85.0605" x="1129" y="140.5229">[Oracle Scheduler]</text><text fill="#FFFFFF" font-family="Verdana" font-size="10" lengthAdjust="spacing" textLength="3.5156" x="1129" y="152.4663">&#160;</text><text fill="#FFFFFF" font-family="Verdana" font-size="10" lengthAdjust="spacing" textLength="138.3984" x="1132.5156" y="164.6196">Dispara pr_efetiva_internet</text><text fill="#FFFFFF" font-family="Verdana" font-size="10" lengthAdjust="spacing" textLength="87.832" x="1129" y="176.7729">a cada N minutos</text></g><!--entity proc--><g id="elem_proc"><rect fill="#438DD5" height="187.2085" rx="2.5" ry="2.5" style="stroke:#333333;stroke-width:1;" width="218.0518" x="1099" y="265.7373"/><text fill="#FFFFFF" font-family="Verdana" font-size="10" font-style="italic" lengthAdjust="spacing" textLength="59.7412" x="1178.1553" y="285.791">&#171;container&#187;</text><text fill="#FFFFFF" font-family="Verdana" font-size="12" font-weight="bold" lengthAdjust="spacing" textLength="131.8418" x="1109" y="299.9551">pr_efetiva_internet</text><text fill="#FFFFFF" font-family="Verdana" font-size="9" lengthAdjust="spacing" textLength="85.3066" x="1109" y="311.5229">[PL/SQL Procedure</text><text fill="#FFFFFF" font-family="Verdana" font-size="10" lengthAdjust="spacing" textLength="115.6396" x="1109" y="323.4663">(2.290 linhas)]&lt;/size&gt;</text><text fill="#FFFFFF" font-family="Verdana" font-size="10" lengthAdjust="spacing" textLength="3.5156" x="1109" y="335.6196">&#160;</text><text fill="#FFFFFF" font-family="Verdana" font-size="10" lengthAdjust="spacing" textLength="3.5156" x="1109" y="347.7729">&#160;</text><text fill="#FFFFFF" font-family="Verdana" font-size="10" font-weight="bold" lengthAdjust="spacing" textLength="62.0947" x="1112.5156" y="347.7729">MONOLITO</text><line style="stroke:#333333;stroke-width:1;" x1="1100" x2="1316.0518" y1="349.8726" y2="349.8726"/><text fill="#FFFFFF" font-family="Verdana" font-size="10" lengthAdjust="spacing" textLength="106.1816" x="1109" y="363.9263">&#8226; 9 fases sequenciais</text><text fill="#FFFFFF" font-family="Verdana" font-size="10" lengthAdjust="spacing" textLength="147.5049" x="1109" y="376.0796">&#8226; 13 valida&#231;&#245;es de pend&#234;ncia</text><text fill="#FFFFFF" font-family="Verdana" font-size="10" lengthAdjust="spacing" textLength="108.7207" x="1109" y="388.2329">&#8226; 25 vari&#225;veis globais</text><text fill="#FFFFFF" font-family="Verdana" font-size="10" lengthAdjust="spacing" textLength="170.21" x="1109" y="400.3862">&#8226; 50+ WHEN OTHERS THEN NULL</text><text fill="#FFFFFF" font-family="Verdana" font-size="10" lengthAdjust="spacing" textLength="198.0518" x="1109" y="412.5396">&#8226; ~500 linhas duplicadas sa&#250;de/odonto</text><text fill="#FFFFFF" font-family="Verdana" font-size="10" lengthAdjust="spacing" textLength="148.2764" x="1109" y="424.6929">&#8226; ~120 linhas de log repetido</text><text fill="#FFFFFF" font-family="Verdana" font-size="10" lengthAdjust="spacing" textLength="112.998" x="1109" y="436.8462">&#8226; Zero testes unit&#225;rios</text></g><!--entity cad_emp--><g id="elem_cad_emp"><rect fill="#438DD5" height="106.2886" rx="2.5" ry="2.5" style="stroke:#333333;stroke-width:1;" width="158.5449" x="27.5" y="545.7373"/><text fill="#FFFFFF" font-family="Verdana" font-size="10" font-style="italic" lengthAdjust="spacing" textLength="59.7412" x="76.9019" y="565.791">&#171;container&#187;</text><text fill="#FFFFFF" font-family="Verdana" font-size="12" font-weight="bold" lengthAdjust="spacing" textLength="123.8555" x="37.5" y="579.9551">pr_cadastramento</text><text fill="#FFFFFF" font-family="Verdana" font-size="10" lengthAdjust="spacing" textLength="78.5547" x="37.5" y="592.5283">_empresa_prov</text><text fill="#FFFFFF" font-family="Verdana" font-size="9" lengthAdjust="spacing" textLength="108.0308" x="37.5" y="603.6763">[PL/SQL (4.991 linhas)]</text><text fill="#FFFFFF" font-family="Verdana" font-size="10" lengthAdjust="spacing" textLength="3.5156" x="37.5" y="615.6196">&#160;</text><text fill="#FFFFFF" font-family="Verdana" font-size="10" lengthAdjust="spacing" textLength="127.1826" x="41.0156" y="627.7729">Cria empresa conveniada</text><text fill="#FFFFFF" font-family="Verdana" font-size="10" lengthAdjust="spacing" textLength="138.5449" x="37.5" y="639.9263">com contratos e obriga&#231;&#245;es</text></g><!--entity cad_int2--><g id="elem_cad_int2"><rect fill="#438DD5" height="106.2886" rx="2.5" ry="2.5" style="stroke:#333333;stroke-width:1;" width="143.8555" x="222" y="545.7373"/><text fill="#FFFFFF" font-family="Verdana" font-size="10" font-style="italic" lengthAdjust="spacing" textLength="59.7412" x="264.0571" y="565.791">&#171;container&#187;</text><text fill="#FFFFFF" font-family="Verdana" font-size="12" font-weight="bold" lengthAdjust="spacing" textLength="123.8555" x="232" y="579.9551">pr_cadastramento</text><text fill="#FFFFFF" font-family="Verdana" font-size="10" lengthAdjust="spacing" textLength="52.1777" x="232" y="592.5283">_internet2</text><text fill="#FFFFFF" font-family="Verdana" font-size="9" lengthAdjust="spacing" textLength="40.9438" x="232" y="603.6763">[PL/SQL]</text><text fill="#FFFFFF" font-family="Verdana" font-size="10" lengthAdjust="spacing" textLength="3.5156" x="232" y="615.6196">&#160;</text><text fill="#FFFFFF" font-family="Verdana" font-size="10" lengthAdjust="spacing" textLength="88.6133" x="235.5156" y="627.7729">Processa titulares</text><text fill="#FFFFFF" font-family="Verdana" font-size="10" lengthAdjust="spacing" textLength="73.7988" x="232" y="639.9263">e dependentes</text></g><!--entity critica--><g id="elem_critica"><rect fill="#438DD5" height="94.1353" rx="2.5" ry="2.5" style="stroke:#333333;stroke-width:1;" width="147.2246" x="401.5" y="551.7373"/><text fill="#FFFFFF" font-family="Verdana" font-size="10" font-style="italic" lengthAdjust="spacing" textLength="59.7412" x="445.2417" y="571.791">&#171;container&#187;</text><text fill="#FFFFFF" font-family="Verdana" font-size="12" font-weight="bold" lengthAdjust="spacing" textLength="127.2246" x="411.5" y="585.9551">pr_critica_internet</text><text fill="#FFFFFF" font-family="Verdana" font-size="9" lengthAdjust="spacing" textLength="40.9438" x="411.5" y="597.5229">[PL/SQL]</text><text fill="#FFFFFF" font-family="Verdana" font-size="10" lengthAdjust="spacing" textLength="3.5156" x="411.5" y="609.4663">&#160;</text><text fill="#FFFFFF" font-family="Verdana" font-size="10" lengthAdjust="spacing" textLength="78.5303" x="415.0156" y="621.6196">Executa cr&#237;ticas</text><text fill="#FFFFFF" font-family="Verdana" font-size="10" lengthAdjust="spacing" textLength="62.6367" x="411.5" y="633.7729">de valida&#231;&#227;o</text></g><!--entity odon_cad--><g id="elem_odon_cad"><rect fill="#438DD5" height="94.1353" rx="2.5" ry="2.5" style="stroke:#333333;stroke-width:1;" width="128.6084" x="583.5" y="551.7373"/><text fill="#FFFFFF" font-family="Verdana" font-size="10" font-style="italic" lengthAdjust="spacing" textLength="59.7412" x="617.9336" y="571.791">&#171;container&#187;</text><text fill="#FFFFFF" font-family="Verdana" font-size="12" font-weight="bold" lengthAdjust="spacing" textLength="88.3008" x="593.5" y="585.9551">pr_odon_cad</text><text fill="#FFFFFF" font-family="Verdana" font-size="10" lengthAdjust="spacing" textLength="78.5547" x="593.5" y="598.5283">_empresa_prov</text><text fill="#FFFFFF" font-family="Verdana" font-size="9" lengthAdjust="spacing" textLength="40.9438" x="593.5" y="609.6763">[PL/SQL]</text><text fill="#FFFFFF" font-family="Verdana" font-size="10" lengthAdjust="spacing" textLength="3.5156" x="593.5" y="621.6196">&#160;</text><text fill="#FFFFFF" font-family="Verdana" font-size="10" lengthAdjust="spacing" textLength="105.0928" x="597.0156" y="633.7729">Cria empresa odonto</text></g><!--entity nat_odon--><g id="elem_nat_odon"><rect fill="#438DD5" height="94.1353" rx="2.5" ry="2.5" style="stroke:#333333;stroke-width:1;" width="149.7559" x="748" y="551.7373"/><text fill="#FFFFFF" font-family="Verdana" font-size="10" font-style="italic" lengthAdjust="spacing" textLength="59.7412" x="793.0073" y="571.791">&#171;container&#187;</text><text fill="#FFFFFF" font-family="Verdana" font-size="12" font-weight="bold" lengthAdjust="spacing" textLength="129.7559" x="758" y="585.9551">PR_NAT_JURIDICA</text><text fill="#FFFFFF" font-family="Verdana" font-size="10" lengthAdjust="spacing" textLength="37.2852" x="758" y="598.5283">_ODON</text><text fill="#FFFFFF" font-family="Verdana" font-size="9" lengthAdjust="spacing" textLength="40.9438" x="758" y="609.6763">[PL/SQL]</text><text fill="#FFFFFF" font-family="Verdana" font-size="10" lengthAdjust="spacing" textLength="3.5156" x="758" y="621.6196">&#160;</text><text fill="#FFFFFF" font-family="Verdana" font-size="10" lengthAdjust="spacing" textLength="113.1934" x="761.5156" y="633.7729">Pessoa jur&#237;dica odonto</text></g><!--entity colig_bitix--><g id="elem_colig_bitix"><rect fill="#438DD5" height="94.1353" rx="2.5" ry="2.5" style="stroke:#333333;stroke-width:1;" width="171.166" x="933.5" y="551.7373"/><text fill="#FFFFFF" font-family="Verdana" font-size="10" font-style="italic" lengthAdjust="spacing" textLength="59.7412" x="989.2124" y="571.791">&#171;container&#187;</text><text fill="#FFFFFF" font-family="Verdana" font-size="12" font-weight="bold" lengthAdjust="spacing" textLength="151.166" x="943.5" y="585.9551">PR_COLIGA_EMPRESA</text><text fill="#FFFFFF" font-family="Verdana" font-size="10" lengthAdjust="spacing" textLength="34.6436" x="943.5" y="598.5283">_BITIX</text><text fill="#FFFFFF" font-family="Verdana" font-size="9" lengthAdjust="spacing" textLength="40.9438" x="943.5" y="609.6763">[PL/SQL]</text><text fill="#FFFFFF" font-family="Verdana" font-size="10" lengthAdjust="spacing" textLength="3.5156" x="943.5" y="621.6196">&#160;</text><text fill="#FFFFFF" font-family="Verdana" font-size="10" lengthAdjust="spacing" textLength="74.8145" x="947.0156" y="633.7729">Coligada BITIX</text></g><!--entity venda_json--><g id="elem_venda_json"><rect fill="#438DD5" height="94.1353" rx="2.5" ry="2.5" style="stroke:#333333;stroke-width:1;" width="137.457" x="1139.5" y="551.7373"/><text fill="#FFFFFF" font-family="Verdana" font-size="10" font-style="italic" lengthAdjust="spacing" textLength="59.7412" x="1178.3579" y="571.791">&#171;container&#187;</text><text fill="#FFFFFF" font-family="Verdana" font-size="12" font-weight="bold" lengthAdjust="spacing" textLength="117.457" x="1149.5" y="585.9551">PK_VENDA_JSON</text><text fill="#FFFFFF" font-family="Verdana" font-size="10" lengthAdjust="spacing" textLength="54.5313" x="1149.5" y="598.5283">.pr_efetiva</text><text fill="#FFFFFF" font-family="Verdana" font-size="9" lengthAdjust="spacing" textLength="81.3296" x="1149.5" y="609.6763">[PL/SQL Package]</text><text fill="#FFFFFF" font-family="Verdana" font-size="10" lengthAdjust="spacing" textLength="3.5156" x="1149.5" y="621.6196">&#160;</text><text fill="#FFFFFF" font-family="Verdana" font-size="10" lengthAdjust="spacing" textLength="98.6084" x="1153.0156" y="633.7729">Efetiva venda JSON</text></g><!--entity colig_sigo--><g id="elem_colig_sigo"><rect fill="#438DD5" height="94.1353" rx="2.5" ry="2.5" style="stroke:#333333;stroke-width:1;" width="169.4199" x="1311.5" y="551.7373"/><text fill="#FFFFFF" font-family="Verdana" font-size="10" font-style="italic" lengthAdjust="spacing" textLength="59.7412" x="1366.3394" y="571.791">&#171;container&#187;</text><text fill="#FFFFFF" font-family="Verdana" font-size="12" font-weight="bold" lengthAdjust="spacing" textLength="149.4199" x="1321.5" y="585.9551">pr_processa_empresa</text><text fill="#FFFFFF" font-family="Verdana" font-size="10" lengthAdjust="spacing" textLength="47.5977" x="1321.5" y="598.5283">_coligada</text><text fill="#FFFFFF" font-family="Verdana" font-size="9" lengthAdjust="spacing" textLength="40.9438" x="1321.5" y="609.6763">[PL/SQL]</text><text fill="#FFFFFF" font-family="Verdana" font-size="10" lengthAdjust="spacing" textLength="3.5156" x="1321.5" y="621.6196">&#160;</text><text fill="#FFFFFF" font-family="Verdana" font-size="10" lengthAdjust="spacing" textLength="73.1982" x="1325.0156" y="633.7729">Coligada SIGO</text></g><!--entity tables--><g id="elem_tables"><path d="M351,722.7373 C351,712.7373 475.1362,712.7373 475.1362,712.7373 C475.1362,712.7373 599.2725,712.7373 599.2725,722.7373 L599.2725,915.2524 C599.2725,925.2524 475.1362,925.2524 475.1362,925.2524 C475.1362,925.2524 351,925.2524 351,915.2524 L351,722.7373 " fill="#FFFFFF" style="stroke:#000000;stroke-width:1;"/><path d="M351,722.7373 C351,732.7373 475.1362,732.7373 475.1362,732.7373 C475.1362,732.7373 599.2725,732.7373 599.2725,722.7373 " fill="none" style="stroke:#000000;stroke-width:1;"/><text fill="#000000" font-family="Verdana" font-size="14" font-style="italic" lengthAdjust="spacing" textLength="35.4922" x="457.3901" y="750.8125">&#171;db&#187;</text><text fill="#000000" font-family="Verdana" font-size="16" font-weight="bold" lengthAdjust="spacing" textLength="111.1484" x="361" y="769.8379">50+ Tabelas</text><text fill="#000000" font-family="Verdana" font-size="9" lengthAdjust="spacing" textLength="69.2666" x="361" y="782.2456">[Oracle Tables]</text><text fill="#000000" font-family="Verdana" font-size="14" lengthAdjust="spacing" textLength="4.9219" x="361" y="798.2104">&#160;</text><text fill="#000000" font-family="Verdana" font-size="14" lengthAdjust="spacing" textLength="147.9844" x="365.9219" y="815.2251">tb_empresa_internet</text><text fill="#000000" font-family="Verdana" font-size="14" lengthAdjust="spacing" textLength="228.2725" x="361" y="832.2397">tb_pendencia_empresa_internet</text><text fill="#000000" font-family="Verdana" font-size="14" lengthAdjust="spacing" textLength="189.8818" x="361" y="849.2544">tb_usuario_titular_internet</text><text fill="#000000" font-family="Verdana" font-size="14" lengthAdjust="spacing" textLength="172.252" x="361" y="866.269">tb_empresa_conveniada</text><text fill="#000000" font-family="Verdana" font-size="14" lengthAdjust="spacing" textLength="156.4883" x="361" y="883.2837">tb_log_baixa_controle</text><text fill="#000000" font-family="Verdana" font-size="14" lengthAdjust="spacing" textLength="136.2881" x="361" y="900.2983">tb_proposta_venda</text><text fill="#000000" font-family="Verdana" font-size="14" lengthAdjust="spacing" textLength="15.2783" x="361" y="917.313">...</text></g><!--entity neoway--><g id="elem_neoway"><rect fill="#999999" height="71.0439" rx="2.5" ry="2.5" style="stroke:#333333;stroke-width:1;" width="132.3779" x="1701" y="563.2373"/><text fill="#FFFFFF" font-family="Verdana" font-size="10" font-style="italic" lengthAdjust="spacing" textLength="28.7061" x="1752.8359" y="583.291">&#171;ext&#187;</text><text fill="#FFFFFF" font-family="Verdana" font-size="12" font-weight="bold" lengthAdjust="spacing" textLength="53.9473" x="1711" y="597.4551">Neoway</text><text fill="#FFFFFF" font-family="Verdana" font-size="10" lengthAdjust="spacing" textLength="3.5156" x="1711" y="610.0283">&#160;</text><text fill="#FFFFFF" font-family="Verdana" font-size="10" lengthAdjust="spacing" textLength="108.8623" x="1714.5156" y="622.1816">fn_checa_divergencia</text></g><!--entity orcamento--><g id="elem_orcamento"><rect fill="#999999" height="71.0439" rx="2.5" ry="2.5" style="stroke:#333333;stroke-width:1;" width="143.3789" x="1868.5" y="563.2373"/><text fill="#FFFFFF" font-family="Verdana" font-size="10" font-style="italic" lengthAdjust="spacing" textLength="28.7061" x="1925.8364" y="583.291">&#171;ext&#187;</text><text fill="#FFFFFF" font-family="Verdana" font-size="12" font-weight="bold" lengthAdjust="spacing" textLength="74.1621" x="1878.5" y="597.4551">Or&#231;amento</text><text fill="#FFFFFF" font-family="Verdana" font-size="10" lengthAdjust="spacing" textLength="3.5156" x="1878.5" y="610.0283">&#160;</text><text fill="#FFFFFF" font-family="Verdana" font-size="10" lengthAdjust="spacing" textLength="119.8633" x="1882.0156" y="622.1816">fn_vi_checa_orcamento</text></g><!--entity adesao--><g id="elem_adesao"><rect fill="#999999" height="71.0439" rx="2.5" ry="2.5" style="stroke:#333333;stroke-width:1;" width="152.5879" x="2060.5" y="563.2373"/><text fill="#FFFFFF" font-family="Verdana" font-size="10" font-style="italic" lengthAdjust="spacing" textLength="28.7061" x="2122.4409" y="583.291">&#171;ext&#187;</text><text fill="#FFFFFF" font-family="Verdana" font-size="12" font-weight="bold" lengthAdjust="spacing" textLength="97.2891" x="2070.5" y="597.4551">Ades&#227;o Digital</text><text fill="#FFFFFF" font-family="Verdana" font-size="10" lengthAdjust="spacing" textLength="3.5156" x="2070.5" y="610.0283">&#160;</text><text fill="#FFFFFF" font-family="Verdana" font-size="10" lengthAdjust="spacing" textLength="129.0723" x="2074.0156" y="622.1816">fn_efetiva_adesao_digital</text></g><g id="elem_GMN34"><path d="M1698.5,275.2373 L1698.5,355.2373 L1317.27,359.2373 L1698.5,363.2373 L1698.5,443.2305 A0,0 0 0 0 1698.5,443.2305 L2049.3877,443.2305 A0,0 0 0 0 2049.3877,443.2305 L2049.3877,285.2373 L2039.3877,275.2373 L1698.5,275.2373 A0,0 0 0 0 1698.5,275.2373 " fill="#FFFFFF" style="stroke:#000000;stroke-width:1;"/><path d="M2039.3877,275.2373 L2039.3877,285.2373 L2049.3877,285.2373 L2039.3877,275.2373 " fill="#FFFFFF" style="stroke:#000000;stroke-width:1;"/><text fill="#000000" font-family="Verdana" font-size="13" font-weight="bold" lengthAdjust="spacing" textLength="180.6924" x="1704.5" y="293.3071">Problemas identificados:</text><text fill="#000000" font-family="Verdana" font-size="13" lengthAdjust="spacing" textLength="259.8096" x="1704.5" y="309.1064">? 2.290 linhas em uma &#250;nica procedure</text><text fill="#000000" font-family="Verdana" font-size="13" lengthAdjust="spacing" textLength="266.8364" x="1704.5" y="324.9058">? 50+ blocos WHEN OTHERS THEN NULL</text><text fill="#000000" font-family="Verdana" font-size="13" lengthAdjust="spacing" textLength="329.8877" x="1704.5" y="340.7051">? ~500 linhas de c&#243;digo duplicado (sa&#250;de/odonto)</text><text fill="#000000" font-family="Verdana" font-size="13" lengthAdjust="spacing" textLength="192.7593" x="1704.5" y="356.5044">? ~120 linhas de log repetido</text><text fill="#000000" font-family="Verdana" font-size="13" lengthAdjust="spacing" textLength="287.9932" x="1704.5" y="372.3037">? 25 vari&#225;veis globais sem reset autom&#225;tico</text><text fill="#000000" font-family="Verdana" font-size="13" lengthAdjust="spacing" textLength="146.8975" x="1704.5" y="388.103">? Zero testes unit&#225;rios</text><text fill="#000000" font-family="Verdana" font-size="13" lengthAdjust="spacing" textLength="201.8618" x="1704.5" y="403.9023">? SQL inline (sem repositories)</text><text fill="#000000" font-family="Verdana" font-size="13" lengthAdjust="spacing" textLength="259.2446" x="1704.5" y="419.7017">? Sem ACL para depend&#234;ncias externas</text><text fill="#000000" font-family="Verdana" font-size="13" lengthAdjust="spacing" textLength="245.1592" x="1704.5" y="435.501">? Commits intermedi&#225;rios espalhados</text></g><!--link job to proc--><g id="link_job_proc"><path d="M1208,188.9673 C1208,211.3573 1208,233.0673 1208,259.5373 " fill="none" id="job-to-proc" style="stroke:#000000;stroke-width:1;"/><polygon fill="#000000" points="1208,265.5373,1212,256.5373,1208,260.5373,1204,256.5373,1208,265.5373" style="stroke:#000000;stroke-width:1;"/><text fill="#000000" font-family="Verdana" font-size="13" lengthAdjust="spacing" textLength="51.5874" x="1209" y="232.8071">Executa</text></g><!--link proc to cad_emp--><g id="link_proc_cad_emp"><path d="M1098.97,364.2473 C873.8,374.0273 365.71,404.3373 213,482.7373 C184.74,497.2473 163.8961,517.8145 145.5461,540.9745 " fill="none" id="proc-to-cad_emp" style="stroke:#000000;stroke-width:1;"/><polygon fill="#000000" points="141.82,545.6773,150.5443,541.1072,144.9251,541.7583,144.2739,536.1391,141.82,545.6773" style="stroke:#000000;stroke-width:1;"/><text fill="#000000" font-family="Verdana" font-size="13" lengthAdjust="spacing" textLength="129.5049" x="214" y="496.8071">Chama diretamente</text><text fill="#000000" font-family="Verdana" font-size="13" lengthAdjust="spacing" textLength="68.7388" x="244.3831" y="512.6064">(sem ACL)</text></g><!--link proc to cad_int2--><g id="link_proc_cad_int2"><path d="M1098.94,366.9773 C905.02,380.5273 509.4,415.6473 390,482.7373 C363.59,497.5773 344.8148,517.843 328.4048,540.843 " fill="none" id="proc-to-cad_int2" style="stroke:#000000;stroke-width:1;"/><polygon fill="#000000" points="324.92,545.7273,333.4034,540.7241,327.824,541.6571,326.891,536.0777,324.92,545.7273" style="stroke:#000000;stroke-width:1;"/><text fill="#000000" font-family="Verdana" font-size="13" lengthAdjust="spacing" textLength="129.5049" x="391" y="496.8071">Chama diretamente</text><text fill="#000000" font-family="Verdana" font-size="13" lengthAdjust="spacing" textLength="68.7388" x="421.3831" y="512.6064">(sem ACL)</text></g><!--link proc to critica--><g id="link_proc_critica"><path d="M1098.82,371.5673 C939.35,389.6873 652.11,428.7073 564,482.7373 C536.99,499.2973 518.2784,522.1872 502.9584,546.3972 " fill="none" id="proc-to-critica" style="stroke:#000000;stroke-width:1;"/><polygon fill="#000000" points="499.75,551.4673,507.9427,546.001,502.4236,547.2422,501.1825,541.7232,499.75,551.4673" style="stroke:#000000;stroke-width:1;"/><text fill="#000000" font-family="Verdana" font-size="13" lengthAdjust="spacing" textLength="129.5049" x="565" y="496.8071">Chama diretamente</text><text fill="#000000" font-family="Verdana" font-size="13" lengthAdjust="spacing" textLength="68.7388" x="595.3831" y="512.6064">(sem ACL)</text></g><!--link proc to odon_cad--><g id="link_proc_odon_cad"><path d="M1098.73,368.7273 C997.96,380.9473 847.79,410.6673 738,482.7373 C711.61,500.0573 692.8893,522.7093 677.2493,546.5693 " fill="none" id="proc-to-odon_cad" style="stroke:#000000;stroke-width:1;"/><polygon fill="#000000" points="673.96,551.5873,682.2393,546.2531,676.7011,547.4056,675.5486,541.8674,673.96,551.5873" style="stroke:#000000;stroke-width:1;"/><text fill="#000000" font-family="Verdana" font-size="13" lengthAdjust="spacing" textLength="129.5049" x="739" y="496.8071">Chama diretamente</text><text fill="#000000" font-family="Verdana" font-size="13" lengthAdjust="spacing" textLength="68.7388" x="769.3831" y="512.6064">(sem ACL)</text></g><!--link proc to nat_odon--><g id="link_proc_nat_odon"><path d="M1098.8,389.9473 C1039.29,409.7373 966.65,440.0473 911,482.7373 C886.67,501.4073 868.8707,523.4067 853.4207,546.5567 " fill="none" id="proc-to-nat_odon" style="stroke:#000000;stroke-width:1;"/><polygon fill="#000000" points="850.09,551.5473,858.4131,546.2818,852.8656,547.3884,851.7589,541.8409,850.09,551.5473" style="stroke:#000000;stroke-width:1;"/><text fill="#000000" font-family="Verdana" font-size="13" lengthAdjust="spacing" textLength="129.5049" x="912" y="504.8071">Chama diretamente</text></g><!--link proc to colig_bitix--><g id="link_proc_colig_bitix"><path d="M1098.78,447.7873 C1087.99,458.9073 1077.8,470.6473 1069,482.7373 C1053.88,503.5073 1044.2018,523.945 1035.8618,546.005 " fill="none" id="proc-to-colig_bitix" style="stroke:#000000;stroke-width:1;"/><polygon fill="#000000" points="1033.74,551.6173,1040.6642,544.6134,1035.5082,546.9404,1033.1811,541.7843,1033.74,551.6173" style="stroke:#000000;stroke-width:1;"/><text fill="#000000" font-family="Verdana" font-size="13" lengthAdjust="spacing" textLength="129.5049" x="1070" y="504.8071">Chama diretamente</text></g><!--link proc to venda_json--><g id="link_proc_venda_json"><path d="M1208,452.7373 C1208,486.6073 1208,517.4673 1208,545.5473 " fill="none" id="proc-to-venda_json" style="stroke:#000000;stroke-width:1;"/><polygon fill="#000000" points="1208,551.5473,1212,542.5473,1208,546.5473,1204,542.5473,1208,551.5473" style="stroke:#000000;stroke-width:1;"/><text fill="#000000" font-family="Verdana" font-size="13" lengthAdjust="spacing" textLength="129.5049" x="1209" y="504.8071">Chama diretamente</text></g><!--link proc to colig_sigo--><g id="link_proc_colig_sigo"><path d="M1317.31,447.7173 C1328.08,458.8473 1338.24,470.6173 1347,482.7373 C1362,503.4973 1371.5052,523.9175 1379.6352,545.9775 " fill="none" id="proc-to-colig_sigo" style="stroke:#000000;stroke-width:1;"/><polygon fill="#000000" points="1381.71,551.6073,1382.351,541.7793,1379.981,546.9158,1374.8445,544.5458,1381.71,551.6073" style="stroke:#000000;stroke-width:1;"/><text fill="#000000" font-family="Verdana" font-size="13" lengthAdjust="spacing" textLength="129.5049" x="1368" y="504.8071">Chama diretamente</text></g><!--link proc to tables--><g id="link_proc_tables"><path d="M1317.36,374.5873 C1383.99,389.5973 1464.12,420.2373 1506,482.7373 C1529.14,517.2673 1582,558.6473 1498,651.7373 C1380.09,782.4073 851.0082,810.4502 605.1882,816.4802 " fill="none" id="proc-to-tables" style="stroke:#000000;stroke-width:1;"/><polygon fill="#000000" points="599.19,816.6273,608.2854,820.4054,604.1885,816.5047,608.0892,812.4078,599.19,816.6273" style="stroke:#000000;stroke-width:1;"/><text fill="#000000" font-family="Verdana" font-size="13" lengthAdjust="spacing" textLength="113.0327" x="1545" y="588.3071">SELECT, INSERT,</text><text fill="#000000" font-family="Verdana" font-size="13" lengthAdjust="spacing" textLength="111.7124" x="1545.6602" y="604.1064">UPDATE, DELETE</text><text fill="#000000" font-family="Verdana" font-size="13" lengthAdjust="spacing" textLength="77.6318" x="1562.7004" y="619.9058">(SQL inline)</text></g><!--link proc to neoway--><g id="link_proc_neoway"><path d="M1317.36,393.8673 C1387.63,416.5473 1480.34,448.5073 1560,482.7373 C1616.07,506.8273 1628.83,515.7973 1682,545.7373 C1691.65,551.1673 1696.6402,554.0418 1706.4202,559.9318 " fill="none" id="proc-to-neoway" style="stroke:#000000;stroke-width:1;"/><polygon fill="#000000" points="1711.56,563.0273,1705.9139,554.9575,1707.2768,560.4477,1701.7866,561.8107,1711.56,563.0273" style="stroke:#000000;stroke-width:1;"/><text fill="#000000" font-family="Verdana" font-size="13" lengthAdjust="spacing" textLength="141.521" x="1630" y="504.8071">fn_checa_divergencia</text></g><!--link proc to orcamento--><g id="link_proc_orcamento"><path d="M1317.3,381.1373 C1471.29,410.9573 1738.13,464.1873 1780,482.7373 C1825.51,502.8973 1866.3819,533.4309 1897.1519,559.3609 " fill="none" id="proc-to-orcamento" style="stroke:#000000;stroke-width:1;"/><polygon fill="#000000" points="1901.74,563.2273,1897.4354,554.3689,1897.9166,560.0053,1892.2802,560.4864,1901.74,563.2273" style="stroke:#000000;stroke-width:1;"/><text fill="#000000" font-family="Verdana" font-size="13" lengthAdjust="spacing" textLength="155.8223" x="1837" y="504.8071">fn_vi_checa_orcamento</text></g><!--link proc to adesao--><g id="link_proc_adesao"><path d="M1317.38,384.8473 C1412.91,405.5573 1555.53,434.6373 1681,452.7373 C1822.38,473.1373 1869.3,427.4173 2001,482.7373 C2043.19,500.4573 2077.9434,531.7528 2103.2334,558.6928 " fill="none" id="proc-to-adesao" style="stroke:#000000;stroke-width:1;"/><polygon fill="#000000" points="2107.34,563.0673,2104.0965,553.7679,2103.9179,559.4219,2098.2638,559.2433,2107.34,563.0673" style="stroke:#000000;stroke-width:1;"/><text fill="#000000" font-family="Verdana" font-size="13" lengthAdjust="spacing" textLength="167.7939" x="2055" y="504.8071">fn_efetiva_adesao_digital</text></g><!--link cad_emp to tables--><g id="link_cad_emp_tables"><path d="M186.85,647.1473 C234.73,675.5773 291.4808,709.2742 345.6308,741.4242 " fill="none" id="cad_emp-to-tables" style="stroke:#000000;stroke-width:1;"/><polygon fill="#000000" points="350.79,744.4873,345.0933,736.4532,346.4907,741.9347,341.0091,743.3321,350.79,744.4873" style="stroke:#000000;stroke-width:1;"/></g><!--link cad_int2 to tables--><g id="link_cad_int2_tables"><path d="M337.12,651.7973 C352.29,670.0973 366.092,686.7671 383.582,707.8771 " fill="none" id="cad_int2-to-tables" style="stroke:#000000;stroke-width:1;"/><polygon fill="#000000" points="387.41,712.4973,384.7482,703.015,384.22,708.6471,378.5879,708.1189,387.41,712.4973" style="stroke:#000000;stroke-width:1;"/></g><!--link critica to tables--><g id="link_critica_tables"><path d="M475,645.8073 C475,665.3373 475,682.9773 475,706.4073 " fill="none" id="critica-to-tables" style="stroke:#000000;stroke-width:1;"/><polygon fill="#000000" points="475,712.4073,479,703.4073,475,707.4073,471,703.4073,475,712.4073" style="stroke:#000000;stroke-width:1;"/></g><!--link odon_cad to tables--><g id="link_odon_cad_tables"><path d="M611.52,645.8073 C596.06,665.3373 581.0644,684.2732 562.5144,707.7032 " fill="none" id="odon_cad-to-tables" style="stroke:#000000;stroke-width:1;"/><polygon fill="#000000" points="558.79,712.4073,567.5127,707.834,561.8936,708.4872,561.2405,702.8682,558.79,712.4073" style="stroke:#000000;stroke-width:1;"/></g><text fill="#000000" font-family="Verdana" font-size="14" lengthAdjust="spacing" textLength="458.9512" x="881.4214" y="966.8125">Diagrama de Container &#8212; Situa&#231;&#227;o Atual (monolito 2.290 linhas)</text><!--SRC=[dLVDRjj64BxpAIRAePPgExOI0xNXk9159bOgIwuejqMhWbYHQsaJQbTPBbMdGOiyH5yWpI50WPoANdBLc-H9EhjBIfH5DNRtHEtCV3Cx_xgdndH2OHeJnXt5L4oX-GW-lVa3ElCFCnf3_GYQWYiaKmbR3N-dvLSDlI5VfanHbKe2vuABUFv1iP10GwKaTa8oLKnmS1aPIJ8X4D42ZfRt6JBEty_V2Ii2MnEDmfI0-cxzS0zYniSagJfEyeBnAK4Ka3HKX8_GoDSEu3abuOkH52cFcY8MylWup5MSdC3zHm-_Sjq3m_W4xqjOxBd_n9non6YuuDk4M6Iv1IAzLalLX-RSH2oob20A6L5fM67jt7zepWBHPxzIA3lxUyvlZdClebVeZ6LijcX0OaQIRQ11J8OqrX-AXcEkFoAQXB9QY4FbyUECRy2F4zHrT7ZoKoRmy_43VNCou0EUorPWDG8aWKpXkYdky5R6H4IH8Kd-doqcTYL6-AyIHIU1TwrARVXFFwngiB4ig72cc15aX39TIKAKTVC7cB88iI09d5sUD_o-rwjeIM7vNZicgijGFHV3RQYuf-T-u3VFFFUoxVNWMVUqiht0rd1H6bEfxroMw3g2gGpe5LLiHWB65PMSgW4d49A8G0ScZATA99NgJNLJAK94AP7Mu1Vj1_wtRRX09jGewO1lhTInvgdLphkTRhlLxzPg0xwpipFWdzxy2OTmXSzF8A4lKyf3HbXY2ViFOOPEYtIV-0SPi8bCAO_cVsacor8_G1R9vczdb2KmYiLm8NsmzoLyV-PreDi_yte-zFLtvxBTjkJV3_Pouo1Afp7JxqSZoFnZH1-82DyjCixz-fAJGYn66FafkY3A67waKe2Yc389f9of-Ll9oZo86W8wcLed6dKAsnerYZH1qeG4wEPPmQ5RZtOF3_UBNcnAHY3Z1Yoc6UKCiGOy51Fz6p4nVa1132KRPRuhDmO3M2-t9WzjVMcA-TBXJL0lpeeq9cZ20AibeZeiA5cgHp8z638rzaT9vkWlxvg6gS97IJjC41pzlKY1Ts8TNST96s_XyryRtRdcFnldTLnEb47JahsWq-W7povxBRVLR21sr-rsRlW5dI88F4_HyaYFmKsu8OwuKJ14BrnRw2RMmzD6u9rVz3nVWv-s-gqVRbYiXNHrMjeQA6P0H8BdYJNtc-0xh-CsWcT-jpFWkyjwBPQfxK76wPO81WIqq2Qh4pOIri_JB0roBwFPOMRZ1ilzrjFk6YvsU6nzCSNcMj7LsjSDb2I5_jKtP7sXXekGBfiMNjhCmtvGJawJ5Dk32B9yNINc4iKYmciiy03RoBKXA2bYQZL9CHM98e7n57fsTnTVX4EqC2mu5R-GLsXkntnemw_GDsEAEH-n6PKZOolA5OI436tTcNVFtziVcUoCPU8BhbLXWfE6QCa6VkXjocKZfaYSYUUjshAX3PQ8aVW27j_w87FFQpUQhMwdSUvr-bt_Rk8ugM1dvmHqti3Hej0hE0prZIPblL5JcsEpCJ99bNcndYK9dK2ZsQvMLYLq0xkBY6q_Tv38EyeTHFBMKIfID6RP2Zx7kYpmsu7gIlqSfwqypULxRQ_PtuPMn_Tw_Uq1lxnm6trl6rmaz3ryfMuPZECCejLYp6osQuZI92zuCS_TZBSagPVCDbKppWtvwpXvlYoVuYmIedYNHRnmjGXfuSxXGb70SJbM8AvCdcAhgjLmtY5zWeEVwVd6hlIM89AZMWt9Nw_yKy6H0YbwU_wHQuNJV14oZBgx3MCHubmkNKaCqyf6GY6S_ntfEERBYO2jbUMaQeKsBoVMnB852NJQOkkZ2WWkUvFvMtIIvI_VPGnfcGMmPG6m7-8VDibeOetnRJM0MJFjLc2NDVJEjMwyn28rnMJ253fLT-C9ZPZL0XGNr7YiFUoWAEYWEFy2]--></g></svg>