<svg xmlns="http://www.w3.org/2000/svg" xmlns:xlink="http://www.w3.org/1999/xlink" contentStyleType="text/css" height="1024px" preserveAspectRatio="none" style="width:2888px;height:1024px;background:#FFFFFF;" version="1.1" viewBox="0 0 2888 1024" width="2888px" zoomAndPan="magnify"><title>C4 &#8212; N&#237;vel 2: Container (TO-BE) &#8212; Arquitetura Refatorada com Packages</title><defs/><g><text fill="#000000" font-family="Verdana" font-size="22" font-weight="bold" lengthAdjust="spacing" textLength="904.707" x="987.3457" y="37.1182">C4 &#8212; N&#237;vel 2: Container (TO-BE) &#8212; Arquitetura Refatorada com Packages</text><!--cluster oracle--><g id="cluster_oracle"><path d="M13.5,58.7373 L320.4697,58.7373 A3.75,3.75 0 0 1 322.9697,61.2373 L329.9697,81.752 L2027.5,81.752 A2.5,2.5 0 0 1 2030,84.252 L2030,981.2373 A2.5,2.5 0 0 1 2027.5,983.7373 L13.5,983.7373 A2.5,2.5 0 0 1 11,981.2373 L11,61.2373 A2.5,2.5 0 0 1 13.5,58.7373 " fill="#FFFFFF" style="stroke:#000000;stroke-width:1;"/><line style="stroke:#000000;stroke-width:1;" x1="11" x2="329.9697" y1="81.752" y2="81.752"/><text fill="#000000" font-family="Verdana" font-size="14" font-weight="bold" lengthAdjust="spacing" textLength="305.9697" x="15" y="74.8125">Oracle Database &#8212; Schema HUMASTER</text></g><!--entity job--><g id="elem_job"><rect fill="#438DD5" height="94.1353" rx="2.5" ry="2.5" style="stroke:#333333;stroke-width:1;" width="178.0273" x="1157" y="110.7373"/><text fill="#FFFFFF" font-family="Verdana" font-size="10" font-style="italic" lengthAdjust="spacing" textLength="59.7412" x="1216.1431" y="130.791">&#171;container&#187;</text><text fill="#FFFFFF" font-family="Verdana" font-size="12" font-weight="bold" lengthAdjust="spacing" textLength="158.0273" x="1167" y="144.9551">DBMS_SCHEDULER JOB</text><text fill="#FFFFFF" font-family="Verdana" font-size="9" lengthAdjust="spacing" textLength="85.0605" x="1167" y="156.5229">[Oracle Scheduler]</text><text fill="#FFFFFF" font-family="Verdana" font-size="10" lengthAdjust="spacing" textLength="3.5156" x="1167" y="168.4663">&#160;</text><text fill="#FFFFFF" font-family="Verdana" font-size="10" lengthAdjust="spacing" textLength="138.3984" x="1170.5156" y="180.6196">Dispara pr_efetiva_internet</text><text fill="#FFFFFF" font-family="Verdana" font-size="10" lengthAdjust="spacing" textLength="87.832" x="1167" y="192.7729">a cada N minutos</text></g><!--entity orq--><g id="elem_orq"><rect fill="#438DD5" height="162.9019" rx="2.5" ry="2.5" style="stroke:#333333;stroke-width:1;" width="157.9785" x="1167" y="300.2373"/><text fill="#FFFFFF" font-family="Verdana" font-size="10" font-style="italic" lengthAdjust="spacing" textLength="59.7412" x="1216.1187" y="320.291">&#171;container&#187;</text><text fill="#FFFFFF" font-family="Verdana" font-size="12" font-weight="bold" lengthAdjust="spacing" textLength="131.8418" x="1177" y="334.4551">pr_efetiva_internet</text><text fill="#FFFFFF" font-family="Verdana" font-size="10" lengthAdjust="spacing" textLength="75.7275" x="1177" y="347.0283">(Orquestrador)</text><text fill="#FFFFFF" font-family="Verdana" font-size="9" lengthAdjust="spacing" textLength="85.3066" x="1177" y="358.1763">[PL/SQL Procedure</text><text fill="#FFFFFF" font-family="Verdana" font-size="10" lengthAdjust="spacing" textLength="113.8281" x="1177" y="370.1196">(~150 linhas)]&lt;/size&gt;</text><text fill="#FFFFFF" font-family="Verdana" font-size="10" lengthAdjust="spacing" textLength="3.5156" x="1177" y="382.2729">&#160;</text><text fill="#FFFFFF" font-family="Verdana" font-size="10" lengthAdjust="spacing" textLength="3.5156" x="1177" y="394.4263">&#160;</text><text fill="#FFFFFF" font-family="Verdana" font-size="10" font-weight="bold" lengthAdjust="spacing" textLength="134.4629" x="1180.5156" y="394.4263">ORQUESTRADOR LIMPO</text><line style="stroke:#333333;stroke-width:1;" x1="1168" x2="1323.9785" y1="396.5259" y2="396.5259"/><text fill="#FFFFFF" font-family="Verdana" font-size="10" lengthAdjust="spacing" textLength="136.1084" x="1177" y="410.5796">&#8226; Delega para 14 packages</text><text fill="#FFFFFF" font-family="Verdana" font-size="10" lengthAdjust="spacing" textLength="122.4609" x="1177" y="422.7329">&#8226; Zero l&#243;gica de neg&#243;cio</text><text fill="#FFFFFF" font-family="Verdana" font-size="10" lengthAdjust="spacing" textLength="77.7002" x="1177" y="434.8862">&#8226; 9 fases claras</text><text fill="#FFFFFF" font-family="Verdana" font-size="10" lengthAdjust="spacing" textLength="129.2627" x="1177" y="447.0396">&#8226; Exception handler &#250;nico</text></g><!--entity pk_efet_emp--><g id="elem_pk_efet_emp"><rect fill="#438DD5" height="138.5952" rx="2.5" ry="2.5" style="stroke:#333333;stroke-width:1;" width="148.1641" x="391" y="548.7373"/><text fill="#FFFFFF" font-family="Verdana" font-size="10" font-style="italic" lengthAdjust="spacing" textLength="59.7412" x="435.2114" y="568.791">&#171;container&#187;</text><text fill="#FFFFFF" font-family="Verdana" font-size="12" font-weight="bold" lengthAdjust="spacing" textLength="94.6758" x="401" y="582.9551">pk_efetivacao</text><text fill="#FFFFFF" font-family="Verdana" font-size="10" lengthAdjust="spacing" textLength="74.7705" x="401" y="595.5283">_empresa_pim</text><text fill="#FFFFFF" font-family="Verdana" font-size="9" lengthAdjust="spacing" textLength="81.3296" x="401" y="606.6763">[PL/SQL Package]</text><text fill="#FFFFFF" font-family="Verdana" font-size="10" lengthAdjust="spacing" textLength="3.5156" x="401" y="618.6196">&#160;</text><text fill="#FFFFFF" font-family="Verdana" font-size="10" lengthAdjust="spacing" textLength="46.167" x="404.5156" y="630.7729">BC-EI-04</text><line style="stroke:#333333;stroke-width:1;" x1="392" x2="538.1641" y1="632.8726" y2="632.8726"/><text fill="#FFFFFF" font-family="Verdana" font-size="10" lengthAdjust="spacing" textLength="114.5215" x="401" y="646.9263">Efetiva empresa sa&#250;de</text><text fill="#FFFFFF" font-family="Verdana" font-size="10" lengthAdjust="spacing" textLength="128.1641" x="401" y="659.0796">(ACL ? pr_cadastramento</text><text fill="#FFFFFF" font-family="Verdana" font-size="10" lengthAdjust="spacing" textLength="83.0957" x="401" y="671.2329">_empresa_prov)</text></g><!--entity pk_efet_odon--><g id="elem_pk_efet_odon"><rect fill="#438DD5" height="138.5952" rx="2.5" ry="2.5" style="stroke:#333333;stroke-width:1;" width="139.4971" x="1874.5" y="548.7373"/><text fill="#FFFFFF" font-family="Verdana" font-size="10" font-style="italic" lengthAdjust="spacing" textLength="59.7412" x="1914.3779" y="568.791">&#171;container&#187;</text><text fill="#FFFFFF" font-family="Verdana" font-size="12" font-weight="bold" lengthAdjust="spacing" textLength="94.6758" x="1884.5" y="582.9551">pk_efetivacao</text><text fill="#FFFFFF" font-family="Verdana" font-size="10" lengthAdjust="spacing" textLength="66.123" x="1884.5" y="595.5283">_odonto_pim</text><text fill="#FFFFFF" font-family="Verdana" font-size="9" lengthAdjust="spacing" textLength="81.3296" x="1884.5" y="606.6763">[PL/SQL Package]</text><text fill="#FFFFFF" font-family="Verdana" font-size="10" lengthAdjust="spacing" textLength="3.5156" x="1884.5" y="618.6196">&#160;</text><text fill="#FFFFFF" font-family="Verdana" font-size="10" lengthAdjust="spacing" textLength="46.167" x="1888.0156" y="630.7729">BC-EI-05</text><line style="stroke:#333333;stroke-width:1;" x1="1875.5" x2="2012.9971" y1="632.8726" y2="632.8726"/><text fill="#FFFFFF" font-family="Verdana" font-size="10" lengthAdjust="spacing" textLength="119.4971" x="1884.5" y="646.9263">Efetiva empresa odonto</text><text fill="#FFFFFF" font-family="Verdana" font-size="10" lengthAdjust="spacing" textLength="101.7676" x="1884.5" y="659.0796">(ACL ? pr_odon_cad</text><text fill="#FFFFFF" font-family="Verdana" font-size="10" lengthAdjust="spacing" textLength="83.0957" x="1884.5" y="671.2329">_empresa_prov)</text></g><!--entity pk_baixa--><g id="elem_pk_baixa"><rect fill="#438DD5" height="150.7485" rx="2.5" ry="2.5" style="stroke:#333333;stroke-width:1;" width="148.1641" x="884" y="542.7373"/><text fill="#FFFFFF" font-family="Verdana" font-size="10" font-style="italic" lengthAdjust="spacing" textLength="59.7412" x="928.2114" y="562.791">&#171;container&#187;</text><text fill="#FFFFFF" font-family="Verdana" font-size="12" font-weight="bold" lengthAdjust="spacing" textLength="61.5234" x="894" y="576.9551">pk_baixa</text><text fill="#FFFFFF" font-family="Verdana" font-size="10" lengthAdjust="spacing" textLength="64.1309" x="894" y="589.5283">_beneficiario</text><text fill="#FFFFFF" font-family="Verdana" font-size="9" lengthAdjust="spacing" textLength="81.3296" x="894" y="600.6763">[PL/SQL Package]</text><text fill="#FFFFFF" font-family="Verdana" font-size="10" lengthAdjust="spacing" textLength="3.5156" x="894" y="612.6196">&#160;</text><text fill="#FFFFFF" font-family="Verdana" font-size="10" lengthAdjust="spacing" textLength="46.167" x="897.5156" y="624.7729">BC-EI-06</text><line style="stroke:#333333;stroke-width:1;" x1="885" x2="1031.1641" y1="626.8726" y2="626.8726"/><text fill="#FFFFFF" font-family="Verdana" font-size="10" lengthAdjust="spacing" textLength="86.0986" x="894" y="640.9263">Autoriza titulares</text><text fill="#FFFFFF" font-family="Verdana" font-size="10" lengthAdjust="spacing" textLength="116.8506" x="894" y="653.0796">Migra c&#243;digo provis&#243;rio</text><text fill="#FFFFFF" font-family="Verdana" font-size="10" lengthAdjust="spacing" textLength="128.1641" x="894" y="665.2329">(ACL ? pr_cadastramento</text><text fill="#FFFFFF" font-family="Verdana" font-size="10" lengthAdjust="spacing" textLength="56.7188" x="894" y="677.3862">_internet2)</text></g><!--entity pk_pend--><g id="elem_pk_pend"><rect fill="#438DD5" height="114.2886" rx="2.5" ry="2.5" style="stroke:#333333;stroke-width:1;" width="147.6875" x="208" y="561.2373"/><text fill="#FFFFFF" font-family="Verdana" font-size="10" font-style="italic" lengthAdjust="spacing" textLength="59.7412" x="251.9731" y="581.291">&#171;container&#187;</text><text fill="#FFFFFF" font-family="Verdana" font-size="12" font-weight="bold" lengthAdjust="spacing" textLength="127.6875" x="218" y="595.4551">pk_pendencia_pim</text><text fill="#FFFFFF" font-family="Verdana" font-size="9" lengthAdjust="spacing" textLength="81.3296" x="218" y="607.0229">[PL/SQL Package]</text><text fill="#FFFFFF" font-family="Verdana" font-size="10" lengthAdjust="spacing" textLength="3.5156" x="218" y="618.9663">&#160;</text><text fill="#FFFFFF" font-family="Verdana" font-size="10" lengthAdjust="spacing" textLength="46.167" x="221.5156" y="631.1196">BC-EI-02</text><line style="stroke:#333333;stroke-width:1;" x1="209" x2="354.6875" y1="633.2192" y2="633.2192"/><text fill="#FFFFFF" font-family="Verdana" font-size="10" lengthAdjust="spacing" textLength="84.9756" x="218" y="647.2729">13 Specifications</text><text fill="#FFFFFF" font-family="Verdana" font-size="10" lengthAdjust="spacing" textLength="104.1943" x="218" y="659.4263">Motor de pend&#234;ncias</text></g><!--entity pk_crit--><g id="elem_pk_crit"><rect fill="#438DD5" height="126.4419" rx="2.5" ry="2.5" style="stroke:#333333;stroke-width:1;" width="120.4648" x="729" y="555.2373"/><text fill="#FFFFFF" font-family="Verdana" font-size="10" font-style="italic" lengthAdjust="spacing" textLength="59.7412" x="759.3618" y="575.291">&#171;container&#187;</text><text fill="#FFFFFF" font-family="Verdana" font-size="12" font-weight="bold" lengthAdjust="spacing" textLength="100.4648" x="739" y="589.4551">pk_critica_pim</text><text fill="#FFFFFF" font-family="Verdana" font-size="9" lengthAdjust="spacing" textLength="81.3296" x="739" y="601.0229">[PL/SQL Package]</text><text fill="#FFFFFF" font-family="Verdana" font-size="10" lengthAdjust="spacing" textLength="3.5156" x="739" y="612.9663">&#160;</text><text fill="#FFFFFF" font-family="Verdana" font-size="10" lengthAdjust="spacing" textLength="46.167" x="742.5156" y="625.1196">BC-EI-03</text><line style="stroke:#333333;stroke-width:1;" x1="730" x2="848.4648" y1="627.2192" y2="627.2192"/><text fill="#FFFFFF" font-family="Verdana" font-size="10" lengthAdjust="spacing" textLength="78.5303" x="739" y="641.2729">Executa cr&#237;ticas</text><text fill="#FFFFFF" font-family="Verdana" font-size="10" lengthAdjust="spacing" textLength="83.3887" x="739" y="653.4263">(ACL ? pr_critica</text><text fill="#FFFFFF" font-family="Verdana" font-size="10" lengthAdjust="spacing" textLength="50.3613" x="739" y="665.5796">_internet)</text></g><!--entity pk_status--><g id="elem_pk_status"><rect fill="#438DD5" height="114.2886" rx="2.5" ry="2.5" style="stroke:#333333;stroke-width:1;" width="120.4297" x="574" y="561.2373"/><text fill="#FFFFFF" font-family="Verdana" font-size="10" font-style="italic" lengthAdjust="spacing" textLength="59.7412" x="604.3442" y="581.291">&#171;container&#187;</text><text fill="#FFFFFF" font-family="Verdana" font-size="12" font-weight="bold" lengthAdjust="spacing" textLength="100.4297" x="584" y="595.4551">pk_status_pim</text><text fill="#FFFFFF" font-family="Verdana" font-size="9" lengthAdjust="spacing" textLength="81.3296" x="584" y="607.0229">[PL/SQL Package]</text><text fill="#FFFFFF" font-family="Verdana" font-size="10" lengthAdjust="spacing" textLength="3.5156" x="584" y="618.9663">&#160;</text><text fill="#FFFFFF" font-family="Verdana" font-size="10" lengthAdjust="spacing" textLength="46.167" x="587.5156" y="631.1196">BC-EI-07</text><line style="stroke:#333333;stroke-width:1;" x1="575" x2="693.4297" y1="633.2192" y2="633.2192"/><text fill="#FFFFFF" font-family="Verdana" font-size="10" lengthAdjust="spacing" textLength="99.9121" x="584" y="647.2729">M&#225;quina de estados</text><text fill="#FFFFFF" font-family="Verdana" font-size="10" lengthAdjust="spacing" textLength="77.9102" x="584" y="659.4263">do ciclo de vida</text></g><!--entity pk_log--><g id="elem_pk_log"><rect fill="#438DD5" height="114.2886" rx="2.5" ry="2.5" style="stroke:#333333;stroke-width:1;" width="144.5059" x="27.5" y="561.2373"/><text fill="#FFFFFF" font-family="Verdana" font-size="10" font-style="italic" lengthAdjust="spacing" textLength="59.7412" x="69.8823" y="581.291">&#171;container&#187;</text><text fill="#FFFFFF" font-family="Verdana" font-size="12" font-weight="bold" lengthAdjust="spacing" textLength="124.5059" x="37.5" y="595.4551">pk_log_baixa_pim</text><text fill="#FFFFFF" font-family="Verdana" font-size="9" lengthAdjust="spacing" textLength="81.3296" x="37.5" y="607.0229">[PL/SQL Package]</text><text fill="#FFFFFF" font-family="Verdana" font-size="10" lengthAdjust="spacing" textLength="3.5156" x="37.5" y="618.9663">&#160;</text><text fill="#FFFFFF" font-family="Verdana" font-size="10" lengthAdjust="spacing" textLength="46.167" x="41.0156" y="631.1196">BC-EI-08</text><line style="stroke:#333333;stroke-width:1;" x1="28.5" x2="171.0059" y1="633.2192" y2="633.2192"/><text fill="#FFFFFF" font-family="Verdana" font-size="10" lengthAdjust="spacing" textLength="82.1387" x="37.5" y="647.2729">Log centralizado</text><text fill="#FFFFFF" font-family="Verdana" font-size="10" lengthAdjust="spacing" textLength="100.1123" x="37.5" y="659.4263">(Oracle SEQUENCE)</text></g><!--entity pk_carga--><g id="elem_pk_carga"><rect fill="#438DD5" height="126.4419" rx="2.5" ry="2.5" style="stroke:#333333;stroke-width:1;" width="132.0703" x="1067" y="555.2373"/><text fill="#FFFFFF" font-family="Verdana" font-size="10" font-style="italic" lengthAdjust="spacing" textLength="59.7412" x="1103.1646" y="575.291">&#171;container&#187;</text><text fill="#FFFFFF" font-family="Verdana" font-size="12" font-weight="bold" lengthAdjust="spacing" textLength="62.4199" x="1077" y="589.4551">pk_carga</text><text fill="#FFFFFF" font-family="Verdana" font-size="10" lengthAdjust="spacing" textLength="68.2129" x="1077" y="602.0283">_modelo_pim</text><text fill="#FFFFFF" font-family="Verdana" font-size="9" lengthAdjust="spacing" textLength="81.3296" x="1077" y="613.1763">[PL/SQL Package]</text><text fill="#FFFFFF" font-family="Verdana" font-size="10" lengthAdjust="spacing" textLength="3.5156" x="1077" y="625.1196">&#160;</text><text fill="#FFFFFF" font-family="Verdana" font-size="10" lengthAdjust="spacing" textLength="46.167" x="1080.5156" y="637.2729">BC-EI-11</text><line style="stroke:#333333;stroke-width:1;" x1="1068" x2="1198.0703" y1="639.3726" y2="639.3726"/><text fill="#FFFFFF" font-family="Verdana" font-size="10" lengthAdjust="spacing" textLength="112.0703" x="1077" y="653.4263">Carga PIM por modelo</text><text fill="#FFFFFF" font-family="Verdana" font-size="10" lengthAdjust="spacing" textLength="80.9766" x="1077" y="665.5796">(&#225;rea de venda)</text></g><!--entity pk_indiv--><g id="elem_pk_indiv"><rect fill="#438DD5" height="102.1353" rx="2.5" ry="2.5" style="stroke:#333333;stroke-width:1;" width="144.793" x="1234.5" y="567.2373"/><text fill="#FFFFFF" font-family="Verdana" font-size="10" font-style="italic" lengthAdjust="spacing" textLength="59.7412" x="1277.0259" y="587.291">&#171;container&#187;</text><text fill="#FFFFFF" font-family="Verdana" font-size="12" font-weight="bold" lengthAdjust="spacing" textLength="124.793" x="1244.5" y="601.4551">pk_individual_pim</text><text fill="#FFFFFF" font-family="Verdana" font-size="9" lengthAdjust="spacing" textLength="81.3296" x="1244.5" y="613.0229">[PL/SQL Package]</text><text fill="#FFFFFF" font-family="Verdana" font-size="10" lengthAdjust="spacing" textLength="3.5156" x="1244.5" y="624.9663">&#160;</text><text fill="#FFFFFF" font-family="Verdana" font-size="10" lengthAdjust="spacing" textLength="46.167" x="1248.0156" y="637.1196">BC-EI-12</text><line style="stroke:#333333;stroke-width:1;" x1="1235.5" x2="1378.293" y1="639.2192" y2="639.2192"/><text fill="#FFFFFF" font-family="Verdana" font-size="10" lengthAdjust="spacing" textLength="94.0088" x="1244.5" y="653.2729">Individual/Familiar</text></g><!--entity pk_odon_puro--><g id="elem_pk_odon_puro"><rect fill="#438DD5" height="114.2886" rx="2.5" ry="2.5" style="stroke:#333333;stroke-width:1;" width="114.165" x="1415" y="561.2373"/><text fill="#FFFFFF" font-family="Verdana" font-size="10" font-style="italic" lengthAdjust="spacing" textLength="59.7412" x="1442.2119" y="581.291">&#171;container&#187;</text><text fill="#FFFFFF" font-family="Verdana" font-size="12" font-weight="bold" lengthAdjust="spacing" textLength="72.0938" x="1425" y="595.4551">pk_odonto</text><text fill="#FFFFFF" font-family="Verdana" font-size="10" lengthAdjust="spacing" textLength="54.3115" x="1425" y="608.0283">_puro_pim</text><text fill="#FFFFFF" font-family="Verdana" font-size="9" lengthAdjust="spacing" textLength="81.3296" x="1425" y="619.1763">[PL/SQL Package]</text><text fill="#FFFFFF" font-family="Verdana" font-size="10" lengthAdjust="spacing" textLength="3.5156" x="1425" y="631.1196">&#160;</text><text fill="#FFFFFF" font-family="Verdana" font-size="10" lengthAdjust="spacing" textLength="46.167" x="1428.5156" y="643.2729">BC-EI-13</text><line style="stroke:#333333;stroke-width:1;" x1="1416" x2="1528.165" y1="645.3726" y2="645.3726"/><text fill="#FFFFFF" font-family="Verdana" font-size="10" lengthAdjust="spacing" textLength="94.165" x="1425" y="659.4263">Odonto sem sa&#250;de</text></g><!--entity pk_colig--><g id="elem_pk_colig"><rect fill="#438DD5" height="102.1353" rx="2.5" ry="2.5" style="stroke:#333333;stroke-width:1;" width="135.0078" x="1564.5" y="567.2373"/><text fill="#FFFFFF" font-family="Verdana" font-size="10" font-style="italic" lengthAdjust="spacing" textLength="59.7412" x="1602.1333" y="587.291">&#171;container&#187;</text><text fill="#FFFFFF" font-family="Verdana" font-size="12" font-weight="bold" lengthAdjust="spacing" textLength="115.0078" x="1574.5" y="601.4551">pk_coligada_pim</text><text fill="#FFFFFF" font-family="Verdana" font-size="9" lengthAdjust="spacing" textLength="81.3296" x="1574.5" y="613.0229">[PL/SQL Package]</text><text fill="#FFFFFF" font-family="Verdana" font-size="10" lengthAdjust="spacing" textLength="3.5156" x="1574.5" y="624.9663">&#160;</text><text fill="#FFFFFF" font-family="Verdana" font-size="10" lengthAdjust="spacing" textLength="46.167" x="1578.0156" y="637.1196">BC-EI-14</text><line style="stroke:#333333;stroke-width:1;" x1="1565.5" x2="1698.5078" y1="639.2192" y2="639.2192"/><text fill="#FFFFFF" font-family="Verdana" font-size="10" lengthAdjust="spacing" textLength="70.1709" x="1574.5" y="653.2729">BITIX + SIGO</text></g><!--entity pk_cfg--><g id="elem_pk_cfg"><rect fill="#438DD5" height="126.4419" rx="2.5" ry="2.5" style="stroke:#333333;stroke-width:1;" width="103.9502" x="1735" y="555.2373"/><text fill="#FFFFFF" font-family="Verdana" font-size="10" font-style="italic" lengthAdjust="spacing" textLength="59.7412" x="1757.1045" y="575.291">&#171;container&#187;</text><text fill="#FFFFFF" font-family="Verdana" font-size="12" font-weight="bold" lengthAdjust="spacing" textLength="66.3809" x="1745" y="589.4551">pk_config</text><text fill="#FFFFFF" font-family="Verdana" font-size="10" lengthAdjust="spacing" textLength="70.21" x="1745" y="602.0283">_sistema_pim</text><text fill="#FFFFFF" font-family="Verdana" font-size="9" lengthAdjust="spacing" textLength="81.3296" x="1745" y="613.1763">[PL/SQL Package]</text><text fill="#FFFFFF" font-family="Verdana" font-size="10" lengthAdjust="spacing" textLength="3.5156" x="1745" y="625.1196">&#160;</text><text fill="#FFFFFF" font-family="Verdana" font-size="10" lengthAdjust="spacing" textLength="46.167" x="1748.5156" y="637.2729">BC-EI-09</text><line style="stroke:#333333;stroke-width:1;" x1="1736" x2="1837.9502" y1="639.3726" y2="639.3726"/><text fill="#FFFFFF" font-family="Verdana" font-size="10" lengthAdjust="spacing" textLength="83.9502" x="1745" y="653.4263">Flags de sistema</text><text fill="#FFFFFF" font-family="Verdana" font-size="10" lengthAdjust="spacing" textLength="71.5527" x="1745" y="665.5796">(Record Type)</text></g><!--entity pk_ext--><g id="elem_pk_ext"><rect fill="#438DD5" height="126.4419" rx="2.5" ry="2.5" style="stroke:#333333;stroke-width:1;" width="118.8379" x="1894.5" y="94.7373"/><text fill="#FFFFFF" font-family="Verdana" font-size="10" font-style="italic" lengthAdjust="spacing" textLength="59.7412" x="1924.0483" y="114.791">&#171;container&#187;</text><text fill="#FFFFFF" font-family="Verdana" font-size="12" font-weight="bold" lengthAdjust="spacing" textLength="96.7441" x="1904.5" y="128.9551">pk_integracao</text><text fill="#FFFFFF" font-family="Verdana" font-size="10" lengthAdjust="spacing" textLength="69.79" x="1904.5" y="141.5283">_externa_pim</text><text fill="#FFFFFF" font-family="Verdana" font-size="9" lengthAdjust="spacing" textLength="81.3296" x="1904.5" y="152.6763">[PL/SQL Package]</text><text fill="#FFFFFF" font-family="Verdana" font-size="10" lengthAdjust="spacing" textLength="3.5156" x="1904.5" y="164.6196">&#160;</text><text fill="#FFFFFF" font-family="Verdana" font-size="10" lengthAdjust="spacing" textLength="46.167" x="1908.0156" y="176.7729">BC-EI-10</text><line style="stroke:#333333;stroke-width:1;" x1="1895.5" x2="2012.3379" y1="178.8726" y2="178.8726"/><text fill="#FFFFFF" font-family="Verdana" font-size="10" lengthAdjust="spacing" textLength="70.6934" x="1904.5" y="192.9263">ACL: Neoway,</text><text fill="#FFFFFF" font-family="Verdana" font-size="10" lengthAdjust="spacing" textLength="98.8379" x="1904.5" y="205.0796">Or&#231;amento, Ades&#227;o</text></g><!--entity tables--><g id="elem_tables"><path d="M588,764.7373 C588,754.7373 712.1362,754.7373 712.1362,754.7373 C712.1362,754.7373 836.2725,754.7373 836.2725,764.7373 L836.2725,957.2524 C836.2725,967.2524 712.1362,967.2524 712.1362,967.2524 C712.1362,967.2524 588,967.2524 588,957.2524 L588,764.7373 " fill="#FFFFFF" style="stroke:#000000;stroke-width:1;"/><path d="M588,764.7373 C588,774.7373 712.1362,774.7373 712.1362,774.7373 C712.1362,774.7373 836.2725,774.7373 836.2725,764.7373 " fill="none" style="stroke:#000000;stroke-width:1;"/><text fill="#000000" font-family="Verdana" font-size="14" font-style="italic" lengthAdjust="spacing" textLength="35.4922" x="694.3901" y="792.8125">&#171;db&#187;</text><text fill="#000000" font-family="Verdana" font-size="16" font-weight="bold" lengthAdjust="spacing" textLength="111.1484" x="598" y="811.8379">50+ Tabelas</text><text fill="#000000" font-family="Verdana" font-size="9" lengthAdjust="spacing" textLength="69.2666" x="598" y="824.2456">[Oracle Tables]</text><text fill="#000000" font-family="Verdana" font-size="14" lengthAdjust="spacing" textLength="4.9219" x="598" y="840.2104">&#160;</text><text fill="#000000" font-family="Verdana" font-size="14" lengthAdjust="spacing" textLength="147.9844" x="602.9219" y="857.2251">tb_empresa_internet</text><text fill="#000000" font-family="Verdana" font-size="14" lengthAdjust="spacing" textLength="228.2725" x="598" y="874.2397">tb_pendencia_empresa_internet</text><text fill="#000000" font-family="Verdana" font-size="14" lengthAdjust="spacing" textLength="189.8818" x="598" y="891.2544">tb_usuario_titular_internet</text><text fill="#000000" font-family="Verdana" font-size="14" lengthAdjust="spacing" textLength="172.252" x="598" y="908.269">tb_empresa_conveniada</text><text fill="#000000" font-family="Verdana" font-size="14" lengthAdjust="spacing" textLength="156.4883" x="598" y="925.2837">tb_log_baixa_controle</text><text fill="#000000" font-family="Verdana" font-size="14" lengthAdjust="spacing" textLength="136.2881" x="598" y="942.2983">tb_proposta_venda</text><text fill="#000000" font-family="Verdana" font-size="14" lengthAdjust="spacing" textLength="15.2783" x="598" y="959.313">...</text></g><!--entity tests--><g id="elem_tests"><rect fill="#438DD5" height="106.2886" rx="2.5" ry="2.5" style="stroke:#333333;stroke-width:1;" width="132.1094" x="385" y="328.7373"/><text fill="#FFFFFF" font-family="Verdana" font-size="10" font-style="italic" lengthAdjust="spacing" textLength="59.7412" x="421.1841" y="348.791">&#171;container&#187;</text><text fill="#FFFFFF" font-family="Verdana" font-size="12" font-weight="bold" lengthAdjust="spacing" textLength="104.7539" x="395" y="362.9551">Testes utPLSQL</text><text fill="#FFFFFF" font-family="Verdana" font-size="9" lengthAdjust="spacing" textLength="89.6396" x="395" y="374.5229">[PL/SQL Test Suite]</text><text fill="#FFFFFF" font-family="Verdana" font-size="10" lengthAdjust="spacing" textLength="3.5156" x="395" y="386.4663">&#160;</text><text fill="#FFFFFF" font-family="Verdana" font-size="10" lengthAdjust="spacing" textLength="66.2061" x="398.5156" y="398.6196">40+ cen&#225;rios</text><text fill="#FFFFFF" font-family="Verdana" font-size="10" lengthAdjust="spacing" textLength="78.0615" x="395" y="410.7729">?70% coverage</text><text fill="#FFFFFF" font-family="Verdana" font-size="10" lengthAdjust="spacing" textLength="112.1094" x="395" y="422.9263">Regress&#227;o das 9 fases</text></g><!--entity neoway--><g id="elem_neoway"><rect fill="#999999" height="71.0439" rx="2.5" ry="2.5" style="stroke:#333333;stroke-width:1;" width="131.7188" x="2046" y="346.2373"/><text fill="#FFFFFF" font-family="Verdana" font-size="10" font-style="italic" lengthAdjust="spacing" textLength="28.7061" x="2097.5063" y="366.291">&#171;ext&#187;</text><text fill="#FFFFFF" font-family="Verdana" font-size="12" font-weight="bold" lengthAdjust="spacing" textLength="53.9473" x="2056" y="380.4551">Neoway</text><text fill="#FFFFFF" font-family="Verdana" font-size="10" lengthAdjust="spacing" textLength="3.5156" x="2056" y="393.0283">&#160;</text><text fill="#FFFFFF" font-family="Verdana" font-size="10" lengthAdjust="spacing" textLength="108.2031" x="2059.5156" y="405.1816">Diverg&#234;ncia cadastral</text></g><!--entity orcamento--><g id="elem_orcamento"><rect fill="#999999" height="71.0439" rx="2.5" ry="2.5" style="stroke:#333333;stroke-width:1;" width="128.457" x="2213" y="346.2373"/><text fill="#FFFFFF" font-family="Verdana" font-size="10" font-style="italic" lengthAdjust="spacing" textLength="28.7061" x="2262.8755" y="366.291">&#171;ext&#187;</text><text fill="#FFFFFF" font-family="Verdana" font-size="12" font-weight="bold" lengthAdjust="spacing" textLength="74.1621" x="2223" y="380.4551">Or&#231;amento</text><text fill="#FFFFFF" font-family="Verdana" font-size="10" lengthAdjust="spacing" textLength="3.5156" x="2223" y="393.0283">&#160;</text><text fill="#FFFFFF" font-family="Verdana" font-size="10" lengthAdjust="spacing" textLength="104.9414" x="2226.5156" y="405.1816">Valida&#231;&#227;o or&#231;amento</text></g><!--entity adesao--><g id="elem_adesao"><rect fill="#999999" height="71.0439" rx="2.5" ry="2.5" style="stroke:#333333;stroke-width:1;" width="117.2891" x="2376.5" y="346.2373"/><text fill="#FFFFFF" font-family="Verdana" font-size="10" font-style="italic" lengthAdjust="spacing" textLength="28.7061" x="2420.7915" y="366.291">&#171;ext&#187;</text><text fill="#FFFFFF" font-family="Verdana" font-size="12" font-weight="bold" lengthAdjust="spacing" textLength="97.2891" x="2386.5" y="380.4551">Ades&#227;o Digital</text><text fill="#FFFFFF" font-family="Verdana" font-size="10" lengthAdjust="spacing" textLength="3.5156" x="2386.5" y="393.0283">&#160;</text><text fill="#FFFFFF" font-family="Verdana" font-size="10" lengthAdjust="spacing" textLength="85.8447" x="2390.0156" y="405.1816">Efetiva&#231;&#227;o digital</text></g><g id="elem_GMN52"><path d="M2529,297.7373 L2529,465.7305 L2881.3984,465.7305 L2881.3984,307.7373 L2871.3984,297.7373 L2529,297.7373 " fill="#FFFFFF" style="stroke:#000000;stroke-width:1;"/><path d="M2871.3984,297.7373 L2871.3984,307.7373 L2881.3984,307.7373 L2871.3984,297.7373 " fill="#FFFFFF" style="stroke:#000000;stroke-width:1;"/><text fill="#000000" font-family="Verdana" font-size="13" font-weight="bold" lengthAdjust="spacing" textLength="191.5024" x="2535" y="315.8071">Benef&#237;cios da refatora&#231;&#227;o:</text><text fill="#000000" font-family="Verdana" font-size="13" lengthAdjust="spacing" textLength="244.5244" x="2535" y="331.6064">? 2.290 ? ~150 linhas (orquestrador)</text><text fill="#000000" font-family="Verdana" font-size="13" lengthAdjust="spacing" textLength="225.729" x="2535" y="347.4058">? 14 packages isolados e test&#225;veis</text><text fill="#000000" font-family="Verdana" font-size="13" lengthAdjust="spacing" textLength="246.4985" x="2535" y="363.2051">? ACL para 17 depend&#234;ncias externas</text><text fill="#000000" font-family="Verdana" font-size="13" lengthAdjust="spacing" textLength="331.3984" x="2535" y="379.0044">? Record Type para estado (sem vari&#225;veis globais)</text><text fill="#000000" font-family="Verdana" font-size="13" lengthAdjust="spacing" textLength="283.6133" x="2535" y="394.8037">? Cole&#231;&#227;o de controles (elimina duplica&#231;&#227;o)</text><text fill="#000000" font-family="Verdana" font-size="13" lengthAdjust="spacing" textLength="226.9858" x="2535" y="410.603">? Log centralizado com SEQUENCE</text><text fill="#000000" font-family="Verdana" font-size="13" lengthAdjust="spacing" textLength="213.6304" x="2535" y="426.4023">? ?70% test coverage (utPLSQL)</text><text fill="#000000" font-family="Verdana" font-size="13" lengthAdjust="spacing" textLength="200.0591" x="2535" y="442.2017">? M&#225;quina de estados expl&#237;cita</text><text fill="#000000" font-family="Verdana" font-size="13" lengthAdjust="spacing" textLength="159.2944" x="2535" y="458.001">? Deploy canary (v1/v2)</text></g><!--link job to orq--><g id="link_job_orq"><path d="M1246,205.0073 C1246,232.4573 1246,262.0173 1246,293.9673 " fill="none" id="job-to-orq" style="stroke:#000000;stroke-width:1;"/><polygon fill="#000000" points="1246,299.9673,1250,290.9673,1246,294.9673,1242,290.9673,1246,299.9673" style="stroke:#000000;stroke-width:1;"/><text fill="#000000" font-family="Verdana" font-size="13" lengthAdjust="spacing" textLength="51.5874" x="1247" y="264.8071">Executa</text></g><!--link orq to pk_cfg--><g id="link_orq_pk_cfg"><path d="M1325.24,396.0473 C1423.89,415.5273 1594.34,458.9573 1717,542.7373 C1723.16,546.9373 1724.6898,547.7763 1730.4598,552.9163 " fill="none" id="orq-to-pk_cfg" style="stroke:#000000;stroke-width:1;"/><polygon fill="#000000" points="1734.94,556.9073,1730.8804,547.934,1731.2065,553.5815,1725.5591,553.9076,1734.94,556.9073" style="stroke:#000000;stroke-width:1;"/><text fill="#000000" font-family="Verdana" font-size="13" lengthAdjust="spacing" textLength="112.8931" x="1660" y="509.8071">1. Carrega config</text></g><!--link orq to pk_carga--><g id="link_orq_pk_carga"><path d="M1226.27,463.3573 C1220.95,480.0673 1214.54,497.2773 1207,512.7373 C1199.98,527.1273 1194.4406,536.7303 1185.2406,550.2203 " fill="none" id="orq-to-pk_carga" style="stroke:#000000;stroke-width:1;"/><polygon fill="#000000" points="1181.86,555.1773,1190.2355,549.9956,1184.6772,551.0465,1183.6262,545.4881,1181.86,555.1773" style="stroke:#000000;stroke-width:1;"/><text fill="#000000" font-family="Verdana" font-size="13" lengthAdjust="spacing" textLength="60.1948" x="1215" y="509.8071">2. Fase 1</text></g><!--link orq to pk_pend--><g id="link_orq_pk_pend"><path d="M1166.94,387.6573 C1032.03,397.6773 749.87,425.7473 522,495.7373 C505.09,500.9373 502.61,506.6473 486,512.7373 C437.62,530.4773 419.92,519.3473 374,542.7373 C363.93,547.8673 358.8081,550.73 349.3281,557.56 " fill="none" id="orq-to-pk_pend" style="stroke:#000000;stroke-width:1;"/><polygon fill="#000000" points="344.46,561.0673,354.1004,559.0518,348.5168,558.1445,349.424,552.5609,344.46,561.0673" style="stroke:#000000;stroke-width:1;"/><text fill="#000000" font-family="Verdana" font-size="13" lengthAdjust="spacing" textLength="60.1948" x="523" y="509.8071">3. Fase 2</text></g><!--link orq to pk_efet_emp--><g id="link_orq_pk_efet_emp"><path d="M1166.79,385.4573 C1044.62,392.1673 804.99,415.3873 620,495.7373 C602.2,503.4673 574.3569,524.4195 543.7069,549.5895 " fill="none" id="orq-to-pk_efet_emp" style="stroke:#000000;stroke-width:1;"/><polygon fill="#000000" points="539.07,553.3973,548.5638,550.7768,542.9341,550.2241,543.4867,544.5943,539.07,553.3973" style="stroke:#000000;stroke-width:1;"/><text fill="#000000" font-family="Verdana" font-size="13" lengthAdjust="spacing" textLength="68.0024" x="621" y="509.8071">4. Fase 3a</text></g><!--link orq to pk_efet_odon--><g id="link_orq_pk_efet_odon"><path d="M1325.1,390.7973 C1431.75,403.5773 1626.12,433.6973 1781,495.7373 C1814.42,509.1273 1842.384,527.3926 1869.594,549.0326 " fill="none" id="orq-to-pk_efet_odon" style="stroke:#000000;stroke-width:1;"/><polygon fill="#000000" points="1874.29,552.7673,1869.7358,544.0346,1870.3767,549.6551,1864.7563,550.2959,1874.29,552.7673" style="stroke:#000000;stroke-width:1;"/><text fill="#000000" font-family="Verdana" font-size="13" lengthAdjust="spacing" textLength="68.2944" x="1816" y="509.8071">5. Fase 3b</text></g><!--link orq to pk_crit--><g id="link_orq_pk_crit"><path d="M1166.83,418.4773 C1106.83,445.2473 1022.17,482.3273 947,512.7373 C911.8,526.9773 899.16,522.5473 867,542.7373 C860.97,546.5173 859.7226,547.101 853.9426,551.681 " fill="none" id="orq-to-pk_crit" style="stroke:#000000;stroke-width:1;"/><polygon fill="#000000" points="849.24,555.4073,858.7781,552.9529,853.1589,552.3021,853.8097,546.6828,849.24,555.4073" style="stroke:#000000;stroke-width:1;"/><text fill="#000000" font-family="Verdana" font-size="13" lengthAdjust="spacing" textLength="66.9678" x="989" y="509.8071">6. Fase 3c</text></g><!--link orq to pk_baixa--><g id="link_orq_pk_baixa"><path d="M1166.77,435.8273 C1140.79,454.0873 1112.14,475.1273 1087,495.7373 C1068.68,510.7573 1054.0962,523.6332 1036.5262,540.0332 " fill="none" id="orq-to-pk_baixa" style="stroke:#000000;stroke-width:1;"/><polygon fill="#000000" points="1032.14,544.1273,1041.4486,540.9103,1035.7951,540.7156,1035.9899,535.0621,1032.14,544.1273" style="stroke:#000000;stroke-width:1;"/><text fill="#000000" font-family="Verdana" font-size="13" lengthAdjust="spacing" textLength="110.1953" x="1088" y="509.8071">7. Fases 3d, 5, 6</text></g><!--link orq to pk_status--><g id="link_orq_pk_status"><path d="M1166.94,397.4173 C1077.23,415.3373 927.36,449.1173 804,495.7373 C761.05,511.9673 749.44,516.1573 712,542.7373 C704.21,548.2673 700.9477,550.5989 693.4877,557.1189 " fill="none" id="orq-to-pk_status" style="stroke:#000000;stroke-width:1;"/><polygon fill="#000000" points="688.97,561.0673,698.3789,558.1564,692.7348,557.7769,693.1143,552.1328,688.97,561.0673" style="stroke:#000000;stroke-width:1;"/><text fill="#000000" font-family="Verdana" font-size="13" lengthAdjust="spacing" textLength="59.5029" x="805" y="509.8071">8. Status</text></g><!--link orq to pk_odon_puro--><g id="link_orq_pk_odon_puro"><path d="M1325.29,437.8273 C1347.45,455.0673 1370.73,475.0373 1390,495.7373 C1408.29,515.3873 1422.1856,534.4302 1436.0256,555.9602 " fill="none" id="orq-to-pk_odon_puro" style="stroke:#000000;stroke-width:1;"/><polygon fill="#000000" points="1439.27,561.0073,1437.7681,551.2736,1436.5663,556.8013,1431.0386,555.5995,1439.27,561.0073" style="stroke:#000000;stroke-width:1;"/><text fill="#000000" font-family="Verdana" font-size="13" lengthAdjust="spacing" textLength="60.1948" x="1404" y="509.8071">9. Fase 4</text></g><!--link orq to pk_indiv--><g id="link_orq_pk_indiv"><path d="M1297.24,463.3773 C1302.05,473.9373 1306.17,484.8673 1309,495.7373 C1314.97,518.7073 1315.7145,538.971 1314.2145,561.171 " fill="none" id="orq-to-pk_indiv" style="stroke:#000000;stroke-width:1;"/><polygon fill="#000000" points="1313.81,567.1573,1318.4076,558.4474,1314.1471,562.1687,1310.4258,557.9081,1313.81,567.1573" style="stroke:#000000;stroke-width:1;"/><text fill="#000000" font-family="Verdana" font-size="13" lengthAdjust="spacing" textLength="68.4595" x="1313" y="509.8071">10. Fase 7</text></g><!--link orq to pk_colig--><g id="link_orq_pk_colig"><path d="M1325.04,416.5473 C1388.15,445.4273 1477.25,490.5073 1547,542.7373 C1557.05,550.2673 1562.8224,554.7967 1572.6724,563.1867 " fill="none" id="orq-to-pk_colig" style="stroke:#000000;stroke-width:1;"/><polygon fill="#000000" points="1577.24,567.0773,1572.9823,558.1963,1573.4336,563.8351,1567.7948,564.2865,1577.24,567.0773" style="stroke:#000000;stroke-width:1;"/><text fill="#000000" font-family="Verdana" font-size="13" lengthAdjust="spacing" textLength="89.4004" x="1502" y="509.8071">11. Fases 8-9</text></g><!--link orq to pk_log--><g id="link_orq_pk_log"><path d="M1166.89,391.8673 C943.05,417.7573 319.97,490.0873 299,495.7373 C248.06,509.4473 235,515.1973 190,542.7373 C181,548.2473 176.7315,550.9628 168.0115,557.5728 " fill="none" id="orq-to-pk_log" style="stroke:#000000;stroke-width:1;"/><polygon fill="#000000" points="163.23,561.1973,172.8186,558.9482,167.2146,558.1769,167.9859,552.5729,163.23,561.1973" style="stroke:#000000;stroke-width:1;"/><text fill="#000000" font-family="Verdana" font-size="13" lengthAdjust="spacing" textLength="138.0425" x="300" y="509.8071">12. Log (transversal)</text></g><!--link pk_pend to tables--><g id="link_pk_pend_tables"><path d="M347.77,675.3673 C356.38,681.8573 365.26,688.1473 374,693.7373 C441.77,737.0973 516.9945,774.7298 582.5245,804.7298 " fill="none" id="pk_pend-to-tables" style="stroke:#000000;stroke-width:1;"/><polygon fill="#000000" points="587.98,807.2273,581.4618,799.844,583.4338,805.146,578.1317,807.118,587.98,807.2273" style="stroke:#000000;stroke-width:1;"/></g><!--link pk_crit to tables--><g id="link_pk_crit_tables"><path d="M769.17,681.2973 C762.04,703.6173 755.6052,723.7416 747.6252,748.7316 " fill="none" id="pk_crit-to-tables" style="stroke:#000000;stroke-width:1;"/><polygon fill="#000000" points="745.8,754.4473,752.3482,747.0906,747.321,749.6843,744.7273,744.657,745.8,754.4473" style="stroke:#000000;stroke-width:1;"/></g><!--link pk_efet_emp to tables--><g id="link_pk_efet_emp_tables"><path d="M535.45,687.9773 C556.7,708.7073 576.2356,727.767 599.3456,750.317 " fill="none" id="pk_efet_emp-to-tables" style="stroke:#000000;stroke-width:1;"/><polygon fill="#000000" points="603.64,754.5073,599.992,745.359,600.0614,751.0154,594.4049,751.0848,603.64,754.5073" style="stroke:#000000;stroke-width:1;"/></g><!--link pk_efet_odon to tables--><g id="link_pk_efet_odon_tables"><path d="M1874.3,684.3073 C1868.67,687.8573 1862.88,691.0573 1857,693.7373 C1771.97,732.5373 1741.47,711.1573 1649,724.7373 C1357.91,767.4773 1021.7192,815.8455 842.2492,841.5855 " fill="none" id="pk_efet_odon-to-tables" style="stroke:#000000;stroke-width:1;"/><polygon fill="#000000" points="836.31,842.4373,845.7867,845.1191,841.2594,841.7275,844.651,837.2001,836.31,842.4373" style="stroke:#000000;stroke-width:1;"/></g><!--link pk_baixa to tables--><g id="link_pk_baixa_tables"><path d="M883.86,691.8673 C863.77,711.5573 845.8852,729.0677 824.3452,750.1777 " fill="none" id="pk_baixa-to-tables" style="stroke:#000000;stroke-width:1;"/><polygon fill="#000000" points="820.06,754.3773,829.2876,750.9346,823.631,750.8776,823.688,745.221,820.06,754.3773" style="stroke:#000000;stroke-width:1;"/></g><!--link pk_status to tables--><g id="link_pk_status_tables"><path d="M652.19,675.4373 C659.84,699.0773 667.1623,721.6889 675.9923,748.9689 " fill="none" id="pk_status-to-tables" style="stroke:#000000;stroke-width:1;"/><polygon fill="#000000" points="677.84,754.6773,678.8741,744.8829,676.3002,749.9203,671.2628,747.3465,677.84,754.6773" style="stroke:#000000;stroke-width:1;"/></g><!--link pk_log to tables--><g id="link_pk_log_tables"><path d="M161.72,675.3773 C170.83,682.1373 180.39,688.4873 190,693.7373 C317.51,763.4073 472.8584,807.8478 582.1384,833.4678 " fill="none" id="pk_log-to-tables" style="stroke:#000000;stroke-width:1;"/><polygon fill="#000000" points="587.98,834.8373,580.1306,828.8886,583.112,833.696,578.3046,836.6774,587.98,834.8373" style="stroke:#000000;stroke-width:1;"/></g><!--link pk_cfg to tables--><g id="link_pk_cfg_tables"><path d="M1735.39,681.3673 C1729.58,686.0673 1723.42,690.3073 1717,693.7373 C1566.25,774.2173 1076.3747,827.5166 842.3447,849.0866 " fill="none" id="pk_cfg-to-tables" style="stroke:#000000;stroke-width:1;"/><polygon fill="#000000" points="836.37,849.6373,845.6991,852.7944,841.3489,849.1784,844.9649,844.8282,836.37,849.6373" style="stroke:#000000;stroke-width:1;"/></g><!--link pk_ext to neoway--><g id="link_pk_ext_neoway"><path d="M1998.22,220.8673 C2027.07,261.4073 2060.1707,307.9091 2083.9507,341.3191 " fill="none" id="pk_ext-to-neoway" style="stroke:#000000;stroke-width:1;"/><polygon fill="#000000" points="2087.43,346.2073,2085.4699,336.5555,2084.5306,342.1338,2078.9523,341.1945,2087.43,346.2073" style="stroke:#000000;stroke-width:1;"/><text fill="#000000" font-family="Verdana" font-size="13" lengthAdjust="spacing" textLength="25.2002" x="2029" y="264.8071">ACL</text></g><!--link pk_ext to orcamento--><g id="link_pk_ext_orcamento"><path d="M2013.56,187.0873 C2064.37,212.6073 2138.18,252.9073 2196,297.7373 C2214.3,311.9273 2228.4318,325.7071 2242.9418,341.4371 " fill="none" id="pk_ext-to-orcamento" style="stroke:#000000;stroke-width:1;"/><polygon fill="#000000" points="2247.01,345.8473,2243.8479,336.5199,2243.6199,342.1721,2237.9676,341.9441,2247.01,345.8473" style="stroke:#000000;stroke-width:1;"/><text fill="#000000" font-family="Verdana" font-size="13" lengthAdjust="spacing" textLength="25.2002" x="2153" y="264.8071">ACL</text></g><!--link pk_ext to adesao--><g id="link_pk_ext_adesao"><path d="M2013.76,169.5373 C2096.61,186.5673 2248.63,225.4273 2359,297.7373 C2378.61,310.5873 2392.7526,324.9737 2406.2626,341.5737 " fill="none" id="pk_ext-to-adesao" style="stroke:#000000;stroke-width:1;"/><polygon fill="#000000" points="2410.05,346.2273,2407.4714,336.722,2406.8939,342.3493,2401.2666,341.7718,2410.05,346.2273" style="stroke:#000000;stroke-width:1;"/><text fill="#000000" font-family="Verdana" font-size="13" lengthAdjust="spacing" textLength="25.2002" x="2299" y="264.8071">ACL</text></g><!--link tests to pk_pend--><g id="link_tests_pk_pend"><path d="M384.77,391.4973 C323.57,403.4973 235.96,431.4573 194,495.7373 C179.76,517.5473 186.1191,536.3505 203.9691,556.6605 " fill="none" id="tests-to-pk_pend" style="stroke:#000000;stroke-width:1;stroke-dasharray:7.0,7.0;"/><polygon fill="#000000" points="207.93,561.1673,204.9932,551.7665,204.6292,557.4116,198.9841,557.0477,207.93,561.1673" style="stroke:#000000;stroke-width:1;"/><text fill="#000000" font-family="Verdana" font-size="13" lengthAdjust="spacing" textLength="32.5698" x="195" y="509.8071">testa</text></g><!--link tests to pk_crit--><g id="link_tests_pk_crit"><path d="M517.05,402.8073 C569.85,421.1173 643.76,452.0073 698,495.7373 C718.41,512.1973 733.2391,529.3231 747.9691,550.0931 " fill="none" id="tests-to-pk_crit" style="stroke:#000000;stroke-width:1;stroke-dasharray:7.0,7.0;"/><polygon fill="#000000" points="751.44,554.9873,749.4964,545.3321,748.5476,550.9088,742.9709,549.96,751.44,554.9873" style="stroke:#000000;stroke-width:1;"/><text fill="#000000" font-family="Verdana" font-size="13" lengthAdjust="spacing" textLength="32.5698" x="717" y="509.8071">testa</text></g><!--link tests to pk_efet_emp--><g id="link_tests_pk_efet_emp"><path d="M447.33,434.9973 C446.29,458.7473 445.94,487.1973 448,512.7373 C448.94,524.3673 449.587,530.7311 451.337,542.6311 " fill="none" id="tests-to-pk_efet_emp" style="stroke:#000000;stroke-width:1;stroke-dasharray:7.0,7.0;"/><polygon fill="#000000" points="452.21,548.5673,454.858,539.0811,451.4825,543.6205,446.9431,540.245,452.21,548.5673" style="stroke:#000000;stroke-width:1;"/><text fill="#000000" font-family="Verdana" font-size="13" lengthAdjust="spacing" textLength="32.5698" x="449" y="509.8071">testa</text></g><!--link tests to pk_baixa--><g id="link_tests_pk_baixa"><path d="M517.22,386.5473 C605.65,394.5373 763.82,419.2673 873,495.7373 C890.5,507.9973 902.1198,520.1826 914.5198,537.6726 " fill="none" id="tests-to-pk_baixa" style="stroke:#000000;stroke-width:1;stroke-dasharray:7.0,7.0;"/><polygon fill="#000000" points="917.99,542.5673,916.0478,532.9118,915.0982,538.4884,909.5216,537.5388,917.99,542.5673" style="stroke:#000000;stroke-width:1;"/><text fill="#000000" font-family="Verdana" font-size="13" lengthAdjust="spacing" textLength="32.5698" x="892" y="509.8071">testa</text></g><!--link tests to pk_log--><g id="link_tests_pk_log"><path d="M384.72,391.0773 C316.46,402.9773 211.12,431.0873 146,495.7373 C128.31,513.2973 119.0409,532.5864 112.2609,555.3764 " fill="none" id="tests-to-pk_log" style="stroke:#000000;stroke-width:1;stroke-dasharray:7.0,7.0;"/><polygon fill="#000000" points="110.55,561.1273,116.9503,553.6415,111.9757,556.3349,109.2824,551.3604,110.55,561.1273" style="stroke:#000000;stroke-width:1;"/><text fill="#000000" font-family="Verdana" font-size="13" lengthAdjust="spacing" textLength="32.5698" x="147" y="509.8071">testa</text></g><!--link orq to GMN52--><g id="link_orq_GMN52"><path d="M1325.07,365.5473 C1468.21,337.1673 1780.14,279.4973 2046.5,259.2373 C2244.59,244.1673 2301.64,207.6873 2493.5,259.2373 C2524.64,267.6073 2555.94,281.7973 2584.55,297.6273 " fill="none" id="orq-GMN52" style="stroke:#000000;stroke-width:1;stroke-dasharray:7.0,7.0;"/></g><text fill="#000000" font-family="Verdana" font-size="14" lengthAdjust="spacing" textLength="604.9941" x="1137.2021" y="1008.8125">Diagrama de Container &#8212; Situa&#231;&#227;o Futura (14 packages + orquestrador ~150 linhas)</text><!--SRC=[hHZRSXh9zPslE8ihjQ0LMEXYMIfRBWGZBma25d0gbIX5DJEjKSV3DEbfYEIjfFOZyWDE7hOgLNxosxxo9_ibEQUx1sRiiR7McXUDpdtE_V2Dlk4p3lE8YRYaXOuuj0xXrv_-3RtLkoMFOFyKMZBMYEOAAkD-xToh6dnJ_NqXDDSBnM38hvcMYWKCV3c30VDViv0d9P_DjP0nj0KB5Pin27X66aaP2RrWgvzN_vLmiJ2oAer3c3i1y1r8LCCJZRAbWdyrZlOW4l4DIwgbKl9Qn7E6Sa5nNxCuHED_B04-vyWVAhc8WvQCf7hsp4-Ldft1eyE3f-tsaI6yG7W1YNqUNPYdM68mNTDzIcAMv0iaybkzKNrYdWybPaaA94eLS6L8uQFdqO5vrX97uWs7egUnL_fdgVHDmA_H6PjeLVY4HO8bky0d4PloY5uqzszYUWbuugjg9WxbvyyTtLNyB45TfoTdVt4CVttsc21dL_5LdFAM8Hy1be1J-B4fxUaN6HCmpQOi-MsscDWL636wIpIVJRnRNMZ3P_sGrs1ZcL5HSbaFvRvYFlAsqmymXU9ZeJBu_jLbSpJsXcNYb9RknvA9wYPKVvFJNIYtpoz7ar7hUw_zgkiDuVVzy_BkMZQ92nOHLmHhYuJg2EPgmg-v5ais4R7cAkRwAiQIfhhkmKp42osJSlL3TLYYAAIGkTBFb6-LT0swZqS_T66Wf8y6A8uqsQecafsT_l27LzveF6os-qFeTYu7_PsTgxXMgrt5l_xq7sZpY8TeBjcSwHOM-MUk94Ihzw7mJR-9URXwxmjfiITmZHvDm8-GsN5ujpwtVUg6nG7w15Q_nCANwPT-2y-_-74CWsRh3ysNtWXQ_Q47xVvbizFxRR8sRfw_DWwUyDcStFqwTRVFyDi8gdZ29dCnoxhPkeOWvwsQrwdj7Je_UfOP71yaRFLBGD5ejhhmWbA1mawHc_5OvpGekQn-d0MfUJAGSO5z1DPogtb7dp3FicVD8mZP-4MMJPcuPTOgyufCKnvZIVk2AI4_Qz8JPr8Jir-9DmnmJ2umVIZXBWNEDV1NxmCHIY3z8bczLq9-pf5fUUnN7oB3Hgy6W_vmtEczV804c_Cui6wYDnwZUxQ6RD_vft40epdt1JgLKJMHUoIwZ8gGfAt-H-AImlZuIcYhbzvGm5Qj1scYt79_eJ46QlME69ESvwsmZC-BqoFHJ2yIQu1ztwh_sEc_NBt5FIWshGOR7VOvj22Gu0i_aWHSYe0LAeraQ3NYYytAhKgVEgLT6OAFsQHmShn1bQRHshxkOUVijRpYx_IP2bqPc5Tqp4m6FDfQbus6qzmYDXXqBc6EaRNCg7trLd7ZWYK6cXKh5t4WbbQvUHN1WaLR5QVPrLcpFBvWCu4JKnLgCMrXlb3IQahxXW5jLPOcLTzmGS9dhYyMUrD6meNGl6APRzMGjj_pphZp9rnlHvsN_OVe0Y-zdZVij1wW1VZNws-AhqM8hai4xJpRi_F4VTj5nCA4ai4nOduCkO_BAOplvlmJe-DMfwcXEVPKDzHkgMgtUtKlRT6jxYdqkFm7kzl5AAhLpxRfxa8JzouyChx2rUFckTTjZhxImxYxub8NSMesHtlVmPXMGsoAcyriRD04qDFrPDjiL0ZSjEP2z29Pq4oRk36LHwOS65miLO4fQy2R5aHBk98HjvgKd4jiQXDJrbTnlLx_6W_YIkTzhGCh6hiiUM-CVt6HM-X15vCYanw4W17TfWGyH2TZgyG69QWplpZU-ntUg4kkC8EkuY7c6ayeC_1SIDBj4ByHJw3CgX_Rb8AopIsxCwECqCuqI2TyX9mPDgdyDF_AcsGaxZzYumxStIitc1mtmvHbnEfo5w_eK6ZKWI2t7ba1WODZPExbrszXY1dTwlHxpKklD-wFpA6HtTXnYgvl-Nk9nWi4QhKpkjxX5CsrGxfSAX604BRH4AvH1nmgYXPwst7AEI8pRv1ilmuNT0irScWg1S8UEEn-3fkkoqHnw2WEsCSaD2I8vYYbcUPjm2s2q4zIj9z3cxeX_B759t20EzJHBZp9aTczWkYUrc5a_idXruEBI4wSgiCSYHcRncTx3d-SDvIcaC4tKbEUravo95ZeXW3TIKj41UCS9vZ92OkgvGV9dpHXC7TSSxkVr3IgPB1jbQKq1ddGEhe5O1FHFDo6AGzpCSa3oKKVAB_EGHx2ItP5zSnya_Ts4Cv5Ov3jInHGb5VEOjQjfmXfEyiQSz_lSNtyNbocQqEzdgjQ0c8vvd1fiHNXilLSX5zNOX7IPRv3bMAfEIWHtcYGrzIdSCpix9pJKRXwv-Eim840olskQVhiwSuEqho0_Vh-oHx-pVni0PNipvHLGvRz6LCaCgBB03YG_jNR9HU9eQ8yiBzZ7EF6b3cJmEq-bYopFrboUsf0XLRK9OvxAnB2IA8J4cj12yUucn0SqhcEjl98pCp5ifX7U1qP4ilnuLrXVirDJmf3OUOdVSDwY4B5ZM0hek0Uma-PH-HKpGn9cyyZUOT3CsRg3YhBnkFbVhL4EK51AVqV]--></g></svg>